M48
;DRILL file {KiCad 4.0.6} date 01/04/18 12:36:27
;FORMAT={2:4/ absolute / inch / suppress trailing zeros}
FMAT,2
INCH,LZ
T1C0.016
T2C0.031
T3C0.039
T4C0.055
%
G90
G05
M72
T1
X042594Y-04781
X043464Y-051336
X044272Y-053364
X0446Y-047974
X04523Y-045388
X046669Y-053001
X047774Y-04585
X04789Y-049944
X047952Y-052102
X048196Y-050532
X04868Y-051374
X0491Y-048576
X049242Y-043344
X049338Y-052328
X051614Y-049918
X052342Y-053326
X05261Y-051296
X052742Y-055346
X053054Y-047214
X053306Y-049906
X053418Y-053119
X05557Y-046984
X058768Y-055652
X059542Y-04731
X059962Y-049678
X059994Y-053498
T2
X05602Y-0495
X05602Y-051469
X061756Y-041478
X061756Y-043447
X061954Y-046314
X061954Y-048283
X061954Y-0513
X061954Y-053269
T3
X039126Y-0503
X039126Y-0513
X040456Y-056146
X041456Y-056146
X042456Y-056146
X043456Y-056146
X044178Y-044336
X04423Y-046578
X044456Y-056146
X045178Y-044336
X04523Y-046578
X045456Y-056146
X046456Y-056146
X047046Y-04996
X047046Y-05096
X047456Y-056146
X048456Y-056146
X04855Y-044284
X049456Y-056146
X04955Y-044284
X05055Y-044284
X05155Y-044284
X05255Y-044284
X05355Y-044284
X05455Y-044284
X055288Y-055186
X055288Y-056186
X05555Y-044284
X056288Y-055186
X056288Y-056186
X05655Y-044284
X057288Y-055186
X057288Y-056186
X05755Y-044284
X058288Y-055186
X058288Y-056186
X059288Y-055186
X059288Y-056186
X060288Y-055186
X060288Y-056186
X061288Y-055186
X061288Y-056186
T4
X039326Y-041256
X039326Y-047256
X042298Y-04178
X048298Y-04178
T0
M30
