M48
;DRILL file {KiCad 4.0.6} date 05/17/18 16:23:03
;FORMAT={-:-/ absolute / metric / decimal}
FMAT,2
METRIC,TZ
T1C0.400
T2C1.000
%
G90
G05
M71
T1
X65.405Y-119.444
X65.405Y-125.412
X68.58Y-172.529
X68.644Y-132.017
X68.644Y-137.033
X68.77Y-142.049
X68.77Y-147.193
X68.77Y-152.209
X68.77Y-162.433
X68.77Y-167.45
X68.897Y-157.29
X70.294Y-124.523
X70.548Y-127.444
X72.263Y-152.273
X73.025Y-118.681
X74.549Y-132.017
X75.374Y-172.529
X77.343Y-122.682
X77.597Y-163.512
X77.787Y-141.287
X77.914Y-150.241
X77.978Y-146.177
X77.978Y-153.987
X78.041Y-158.305
X78.676Y-136.969
X79.057Y-168.275
X79.248Y-118.935
X79.375Y-129.222
X79.502Y-183.769
X80.518Y-185.293
X81.661Y-149.796
X82.042Y-154.432
X82.169Y-141.922
X82.486Y-163.385
X82.55Y-172.085
X83.058Y-135.89
X84.455Y-158.496
X84.709Y-130.048
X84.899Y-124.523
X85.09Y-176.657
X86.106Y-155.638
X86.423Y-148.272
X87.122Y-164.465
X87.122Y-177.673
X87.376Y-135.763
X87.63Y-118.808
X87.63Y-180.213
X88.138Y-175.133
X89.154Y-171.069
X89.344Y-129.921
X90.17Y-167.005
X90.17Y-176.149
X90.424Y-144.526
X91.313Y-143.002
X91.694Y-171.069
X91.694Y-173.609
X92.71Y-175.133
X92.964Y-142.939
X93.218Y-164.973
X93.218Y-167.513
X93.345Y-118.618
X93.345Y-122.745
X93.726Y-143.637
X95.25Y-165.481
X95.758Y-175.133
X96.774Y-171.069
X96.774Y-173.609
X97.79Y-167.513
X97.79Y-175.133
X98.044Y-148.526
X98.425Y-155.511
X99.949Y-126.047
X100.774Y-167.957
X100.838Y-175.641
X101.346Y-148.59
X101.473Y-155.638
X101.981Y-121.285
X102.552Y-134.556
X102.87Y-146.113
X102.997Y-174.117
X103.378Y-150.241
X103.378Y-151.257
X105.029Y-161.798
X105.093Y-118.872
X105.791Y-148.336
X106.426Y-143.891
X106.807Y-140.272
X109.029Y-137.605
X109.093Y-141.859
X110.363Y-124.904
X110.426Y-132.969
X110.49Y-155.829
X111.316Y-127.698
T2
X63.627Y-131.953
X63.627Y-134.493
X63.627Y-137.033
X63.627Y-139.573
X63.627Y-142.113
X63.627Y-144.653
X63.627Y-147.193
X63.627Y-149.733
X63.627Y-152.273
X63.627Y-154.813
X63.627Y-157.353
X63.627Y-159.893
X63.627Y-162.433
X63.627Y-164.973
X63.627Y-167.513
X63.627Y-170.053
X85.344Y-182.499
X85.344Y-185.039
X87.884Y-182.499
X87.884Y-185.039
X90.424Y-182.499
X90.424Y-185.039
X92.964Y-182.499
X92.964Y-185.039
X95.504Y-182.499
X95.504Y-185.039
X98.044Y-182.499
X98.044Y-185.039
X110.363Y-118.999
X110.363Y-121.539
T0
M30
