G04 #@! TF.FileFunction,Copper,L2,Bot,Signal*
%FSLAX46Y46*%
G04 Gerber Fmt 4.6, Leading zero omitted, Abs format (unit mm)*
G04 Created by KiCad (PCBNEW 4.0.6) date 05/17/18 16:23:16*
%MOMM*%
%LPD*%
G01*
G04 APERTURE LIST*
%ADD10C,0.100000*%
%ADD11R,0.650000X2.000000*%
%ADD12R,0.900000X1.200000*%
%ADD13R,1.200000X0.900000*%
%ADD14R,1.700000X1.700000*%
%ADD15O,1.700000X1.700000*%
%ADD16R,2.000000X1.600000*%
%ADD17R,1.600000X2.000000*%
%ADD18C,1.700000*%
%ADD19C,0.600000*%
%ADD20C,0.700000*%
%ADD21C,0.250000*%
%ADD22C,0.400000*%
%ADD23C,0.254000*%
G04 APERTURE END LIST*
D10*
D11*
X103571000Y-121099000D03*
X104521000Y-121099000D03*
X105471000Y-121099000D03*
X105471000Y-124519000D03*
X104521000Y-124519000D03*
X103571000Y-124519000D03*
X86235500Y-121099000D03*
X87185500Y-121099000D03*
X88135500Y-121099000D03*
X88135500Y-124519000D03*
X87185500Y-124519000D03*
X86235500Y-124519000D03*
D12*
X92964000Y-179789000D03*
X92964000Y-177589000D03*
D13*
X102954000Y-177419000D03*
X100754000Y-177419000D03*
D12*
X92964000Y-169969000D03*
X92964000Y-172169000D03*
X90424000Y-169969000D03*
X90424000Y-172169000D03*
X95504000Y-179789000D03*
X95504000Y-177589000D03*
X90424000Y-179789000D03*
X90424000Y-177589000D03*
X98044000Y-169969000D03*
X98044000Y-172169000D03*
X110998000Y-146261000D03*
X110998000Y-144061000D03*
D14*
X110363000Y-118999000D03*
D15*
X110363000Y-121539000D03*
D14*
X63627000Y-170053000D03*
D15*
X63627000Y-167513000D03*
X63627000Y-164973000D03*
X63627000Y-162433000D03*
X63627000Y-159893000D03*
X63627000Y-157353000D03*
X63627000Y-154813000D03*
X63627000Y-152273000D03*
X63627000Y-149733000D03*
X63627000Y-147193000D03*
X63627000Y-144653000D03*
X63627000Y-142113000D03*
X63627000Y-139573000D03*
X63627000Y-137033000D03*
X63627000Y-134493000D03*
X63627000Y-131953000D03*
D16*
X102584000Y-179959000D03*
X98584000Y-179959000D03*
D17*
X105029000Y-152178000D03*
X105029000Y-156178000D03*
X110998000Y-149257000D03*
X110998000Y-153257000D03*
X107950000Y-149257000D03*
X107950000Y-153257000D03*
D16*
X96805500Y-140716000D03*
X92805500Y-140716000D03*
D17*
X89662000Y-140620500D03*
X89662000Y-136620500D03*
D16*
X110966000Y-137858500D03*
X106966000Y-137858500D03*
X84804000Y-174879000D03*
X80804000Y-174879000D03*
X110902500Y-135001000D03*
X106902500Y-135001000D03*
X92805000Y-133858000D03*
X88805000Y-133858000D03*
X85756500Y-133858000D03*
X81756500Y-133858000D03*
X84804000Y-178689000D03*
X80804000Y-178689000D03*
X84105500Y-122682000D03*
X80105500Y-122682000D03*
X69373500Y-122682000D03*
X65373500Y-122682000D03*
X101441000Y-122682000D03*
X97441000Y-122682000D03*
D14*
X98044000Y-182499000D03*
D18*
X98044000Y-185039000D03*
X95504000Y-182499000D03*
X95504000Y-185039000D03*
X92964000Y-182499000D03*
X92964000Y-185039000D03*
X90424000Y-182499000D03*
X90424000Y-185039000D03*
X87884000Y-182499000D03*
X87884000Y-185039000D03*
X85344000Y-182499000D03*
X85344000Y-185039000D03*
D13*
X85872500Y-118999000D03*
X83672500Y-118999000D03*
D12*
X89725500Y-118661000D03*
X89725500Y-120861000D03*
D13*
X87355500Y-126619000D03*
X89555500Y-126619000D03*
D12*
X89725500Y-124925000D03*
X89725500Y-122725000D03*
D13*
X71140500Y-118999000D03*
X68940500Y-118999000D03*
D12*
X74993500Y-120861000D03*
X74993500Y-118661000D03*
D13*
X72750500Y-126619000D03*
X74950500Y-126619000D03*
D12*
X74993500Y-124925000D03*
X74993500Y-122725000D03*
D13*
X103271500Y-119062500D03*
X101071500Y-119062500D03*
D12*
X107061000Y-120924500D03*
X107061000Y-118724500D03*
D13*
X104564000Y-126619000D03*
X106764000Y-126619000D03*
D12*
X107061000Y-124925000D03*
X107061000Y-122725000D03*
D11*
X71503500Y-121099000D03*
X72453500Y-121099000D03*
X73403500Y-121099000D03*
X73403500Y-124519000D03*
X72453500Y-124519000D03*
X71503500Y-124519000D03*
D19*
X65405000Y-125412500D03*
X110426500Y-132969000D03*
X103378000Y-150241000D03*
X70548500Y-127444500D03*
X99949000Y-126047500D03*
X111315500Y-127698500D03*
X110363000Y-124904500D03*
X93345000Y-118618000D03*
X93345000Y-122745500D03*
X77343000Y-122682000D03*
X106807000Y-140271500D03*
X79375000Y-129222500D03*
X105092500Y-118872000D03*
X87630000Y-118808500D03*
X83058000Y-135890000D03*
X87376000Y-135763000D03*
X102552500Y-134556500D03*
X68580000Y-172529500D03*
X75374500Y-172529500D03*
X100774500Y-167957500D03*
X100838000Y-175641000D03*
X105029000Y-161798000D03*
X82550000Y-172085000D03*
X87122000Y-164465000D03*
X65405000Y-119443500D03*
X79248000Y-118935500D03*
X101346000Y-148590000D03*
X98044000Y-148526500D03*
X102870000Y-146113500D03*
X105791000Y-148336000D03*
X98425000Y-155511500D03*
X101473000Y-155638500D03*
X106426000Y-143891000D03*
X109093000Y-141859000D03*
X109029500Y-137604500D03*
X90424000Y-144526000D03*
X79057500Y-168275000D03*
X84455000Y-158496000D03*
X82486500Y-163385500D03*
X78676500Y-136969500D03*
X82169000Y-141922500D03*
X86423500Y-148272500D03*
X77597000Y-163512500D03*
X77978000Y-146177000D03*
X81661000Y-149796500D03*
X78041500Y-158305500D03*
X82042000Y-154432000D03*
X77978000Y-153987500D03*
X77914500Y-150241000D03*
X77787500Y-141287500D03*
X68643500Y-132016500D03*
X74549000Y-132016500D03*
X86106000Y-155638500D03*
X72263000Y-152273000D03*
X68770500Y-147193000D03*
X68770500Y-142049500D03*
X68643500Y-137033000D03*
X68770500Y-167449500D03*
X68770500Y-162433000D03*
X68770500Y-152209500D03*
X68897500Y-157289500D03*
X73025000Y-118681500D03*
X80518000Y-185293000D03*
X79502000Y-183769000D03*
X90170000Y-176149000D03*
X87122000Y-177673000D03*
X87630000Y-180213000D03*
X93218000Y-164973000D03*
X93726000Y-143637000D03*
X97790000Y-175133000D03*
X95758000Y-175133000D03*
X92710000Y-175133000D03*
X110490000Y-155829000D03*
X84709000Y-130048000D03*
X91313000Y-143002000D03*
X89344500Y-129921000D03*
X92964000Y-142938500D03*
X102997000Y-174117000D03*
X96774000Y-173609000D03*
X96774000Y-171069000D03*
X97790000Y-167513000D03*
X93218000Y-167513000D03*
X91694000Y-171069000D03*
X91694000Y-173609000D03*
X88138000Y-175133000D03*
X90170000Y-167005000D03*
X89154000Y-171069000D03*
X85090000Y-176657000D03*
X95250000Y-165481000D03*
X103378000Y-151257000D03*
X84899500Y-124523500D03*
X70294500Y-124523500D03*
X101981000Y-121285000D03*
D20*
X110966000Y-137858500D02*
X110966000Y-135064500D01*
X110966000Y-135064500D02*
X110902500Y-135001000D01*
X110966000Y-135064500D02*
X110902500Y-135001000D01*
X110902500Y-135001000D02*
X110902500Y-133445000D01*
X101981000Y-126109000D02*
X103571000Y-124519000D01*
X101981000Y-127000000D02*
X101981000Y-126109000D01*
X103314500Y-128333500D02*
X101981000Y-127000000D01*
X105791000Y-128333500D02*
X103314500Y-128333500D01*
X110902500Y-133445000D02*
X110426500Y-132969000D01*
X110426500Y-132969000D02*
X105791000Y-128333500D01*
X110966000Y-135064500D02*
X110902500Y-135001000D01*
X103269500Y-124820500D02*
X103571000Y-124519000D01*
X110966000Y-135064500D02*
X110902500Y-135001000D01*
X110998000Y-144061000D02*
X110998000Y-137890500D01*
X110998000Y-137890500D02*
X110966000Y-137858500D01*
D21*
X108966000Y-146177000D02*
X104902000Y-146177000D01*
X104902000Y-146177000D02*
X103886000Y-147193000D01*
X103886000Y-147193000D02*
X103886000Y-149733000D01*
X103886000Y-149733000D02*
X103378000Y-150241000D01*
X108966000Y-146177000D02*
X110998000Y-144145000D01*
X110998000Y-144061000D02*
X110998000Y-144145000D01*
D20*
X107061000Y-122725000D02*
X108183500Y-122725000D01*
X108183500Y-122725000D02*
X110363000Y-124904500D01*
X89725500Y-118661000D02*
X93302000Y-118661000D01*
X93302000Y-118661000D02*
X93345000Y-118618000D01*
X89725500Y-122725000D02*
X93324500Y-122725000D01*
X93324500Y-122725000D02*
X93345000Y-122745500D01*
X74993500Y-122725000D02*
X77300000Y-122725000D01*
X77300000Y-122725000D02*
X77343000Y-122682000D01*
X106966000Y-137858500D02*
X106966000Y-140112500D01*
X106966000Y-140112500D02*
X106807000Y-140271500D01*
X104521000Y-121099000D02*
X104521000Y-119443500D01*
X104521000Y-119443500D02*
X105092500Y-118872000D01*
X87185500Y-121099000D02*
X87185500Y-119253000D01*
X87185500Y-119253000D02*
X87630000Y-118808500D01*
X89662000Y-136620500D02*
X88233500Y-136620500D01*
X88233500Y-136620500D02*
X87376000Y-135763000D01*
X75374500Y-172529500D02*
X68580000Y-172529500D01*
D21*
X100774500Y-167957500D02*
X100774500Y-166052500D01*
D20*
X100754000Y-175725000D02*
X100838000Y-175641000D01*
X100754000Y-177419000D02*
X100754000Y-175725000D01*
D21*
X100774500Y-166052500D02*
X105029000Y-161798000D01*
X87122000Y-164465000D02*
X83566000Y-164465000D01*
D20*
X80804000Y-173831000D02*
X82550000Y-172085000D01*
X80804000Y-174879000D02*
X80804000Y-173831000D01*
D21*
X83566000Y-164465000D02*
X82486500Y-163385500D01*
D22*
X68940500Y-118999000D02*
X65849500Y-118999000D01*
X65849500Y-118999000D02*
X65405000Y-119443500D01*
X83672500Y-118999000D02*
X79311500Y-118999000D01*
X79311500Y-118999000D02*
X79248000Y-118935500D01*
D21*
X101346000Y-148590000D02*
X101282500Y-148526500D01*
X101282500Y-148526500D02*
X98044000Y-148526500D01*
X109093000Y-137668000D02*
X109093000Y-141859000D01*
X109029500Y-137604500D02*
X109093000Y-137668000D01*
D20*
X79057500Y-168275000D02*
X81724500Y-165608000D01*
X81724500Y-165608000D02*
X81724500Y-164147500D01*
X81724500Y-164147500D02*
X82486500Y-163385500D01*
X78676500Y-136969500D02*
X82169000Y-140462000D01*
X82169000Y-140462000D02*
X82169000Y-141922500D01*
X78041500Y-158305500D02*
X81915000Y-154432000D01*
X81915000Y-154432000D02*
X82042000Y-154432000D01*
X68580000Y-131953000D02*
X68643500Y-132016500D01*
X68580000Y-131953000D02*
X63627000Y-131953000D01*
X63627000Y-142113000D02*
X68707000Y-142113000D01*
X68707000Y-142113000D02*
X68770500Y-142049500D01*
X63627000Y-162433000D02*
X68770500Y-162433000D01*
X63627000Y-157353000D02*
X68834000Y-157353000D01*
X68834000Y-157353000D02*
X68897500Y-157289500D01*
X72453500Y-121099000D02*
X72453500Y-119253000D01*
X72453500Y-119253000D02*
X73025000Y-118681500D01*
D21*
X80518000Y-184785000D02*
X80518000Y-185293000D01*
X79502000Y-183769000D02*
X80518000Y-184785000D01*
D20*
X90424000Y-177589000D02*
X90424000Y-176403000D01*
X90424000Y-176403000D02*
X90170000Y-176149000D01*
X87122000Y-179705000D02*
X87122000Y-177673000D01*
X87630000Y-180213000D02*
X87122000Y-179705000D01*
X80804000Y-178689000D02*
X80804000Y-174879000D01*
X98584000Y-179959000D02*
X98584000Y-175927000D01*
X98584000Y-175927000D02*
X97790000Y-175133000D01*
X98584000Y-179959000D02*
X98584000Y-179589000D01*
X98584000Y-179589000D02*
X100754000Y-177419000D01*
X92964000Y-177589000D02*
X92964000Y-175387000D01*
X92964000Y-175387000D02*
X92710000Y-175133000D01*
X95504000Y-177589000D02*
X92964000Y-177589000D01*
X110998000Y-153257000D02*
X110998000Y-155321000D01*
X110998000Y-155321000D02*
X110490000Y-155829000D01*
X110998000Y-153257000D02*
X107950000Y-153257000D01*
X107950000Y-153257000D02*
X105029000Y-156178000D01*
X85756500Y-133858000D02*
X85725000Y-133858000D01*
X85725000Y-133858000D02*
X84709000Y-132842000D01*
X84709000Y-132842000D02*
X84709000Y-130048000D01*
X85756500Y-133858000D02*
X85756500Y-136715000D01*
X85756500Y-136715000D02*
X89662000Y-140620500D01*
D21*
X91313000Y-143002000D02*
X89662000Y-141351000D01*
X89662000Y-141351000D02*
X89662000Y-140620500D01*
D20*
X88805000Y-133858000D02*
X88805000Y-133508500D01*
X88805000Y-133508500D02*
X89344500Y-132969000D01*
X89344500Y-132969000D02*
X89344500Y-129921000D01*
X92805500Y-140716000D02*
X92805500Y-136747500D01*
X89884500Y-134937500D02*
X88805000Y-133858000D01*
X90995500Y-134937500D02*
X89884500Y-134937500D01*
X92805500Y-136747500D02*
X90995500Y-134937500D01*
D21*
X92805500Y-142780000D02*
X92805500Y-140716000D01*
X92964000Y-142938500D02*
X92805500Y-142780000D01*
X102954000Y-177419000D02*
X102954000Y-174160000D01*
X102954000Y-174160000D02*
X102997000Y-174117000D01*
X102954000Y-177419000D02*
X102954000Y-177759000D01*
X102954000Y-177759000D02*
X102584000Y-178129000D01*
X102584000Y-178129000D02*
X102584000Y-179959000D01*
X98044000Y-185039000D02*
X100584000Y-185039000D01*
X102394000Y-178319000D02*
X103294000Y-177419000D01*
X102394000Y-183229000D02*
X102394000Y-178319000D01*
X100584000Y-185039000D02*
X102394000Y-183229000D01*
X97874000Y-169969000D02*
X98044000Y-169969000D01*
X96774000Y-178689000D02*
X96774000Y-173609000D01*
X96774000Y-171069000D02*
X97874000Y-169969000D01*
X95674000Y-179789000D02*
X96774000Y-178689000D01*
X97790000Y-169545000D02*
X98044000Y-169969000D01*
X97790000Y-167513000D02*
X97790000Y-169037000D01*
X97790000Y-169037000D02*
X97790000Y-169545000D01*
X95504000Y-179789000D02*
X95674000Y-179789000D01*
X95504000Y-185039000D02*
X94234000Y-183769000D01*
X94234000Y-181059000D02*
X95504000Y-179789000D01*
X94234000Y-183769000D02*
X94234000Y-181059000D01*
X92964000Y-167767000D02*
X93218000Y-167513000D01*
X92964000Y-167767000D02*
X92964000Y-169969000D01*
X92964000Y-169969000D02*
X92964000Y-169799000D01*
X92964000Y-179789000D02*
X92794000Y-179789000D01*
X92794000Y-179789000D02*
X91694000Y-178689000D01*
X91694000Y-171069000D02*
X92794000Y-169969000D01*
X91694000Y-178689000D02*
X91694000Y-173609000D01*
X92794000Y-169969000D02*
X92964000Y-169969000D01*
X92964000Y-185039000D02*
X91694000Y-183769000D01*
X91694000Y-181229000D02*
X92964000Y-179959000D01*
X91694000Y-183769000D02*
X91694000Y-181229000D01*
X92964000Y-179959000D02*
X92964000Y-179789000D01*
X89154000Y-178519000D02*
X90424000Y-179789000D01*
X89154000Y-176149000D02*
X89154000Y-178519000D01*
X88138000Y-175133000D02*
X89154000Y-176149000D01*
X90424000Y-179789000D02*
X90254000Y-179789000D01*
X90424000Y-185039000D02*
X89154000Y-183769000D01*
X89154000Y-181229000D02*
X90424000Y-179959000D01*
X89154000Y-183769000D02*
X89154000Y-181229000D01*
X90424000Y-179959000D02*
X90424000Y-179789000D01*
X90254000Y-169969000D02*
X90424000Y-169969000D01*
X90170000Y-169545000D02*
X90424000Y-169969000D01*
X90170000Y-167005000D02*
X90170000Y-169545000D01*
X90170000Y-170053000D02*
X90254000Y-169969000D01*
X89154000Y-171069000D02*
X90254000Y-169969000D01*
D20*
X98044000Y-172169000D02*
X95504000Y-172169000D01*
X95504000Y-172169000D02*
X92964000Y-172169000D01*
X90424000Y-172169000D02*
X87884000Y-172169000D01*
X92964000Y-172169000D02*
X90424000Y-172169000D01*
X85344000Y-174709000D02*
X87884000Y-172169000D01*
D21*
X95250000Y-165481000D02*
X94742000Y-165989000D01*
X84582000Y-169037000D02*
X84582000Y-174657000D01*
X87630000Y-165989000D02*
X84582000Y-169037000D01*
X94742000Y-165989000D02*
X87630000Y-165989000D01*
X84582000Y-174657000D02*
X84804000Y-174879000D01*
D20*
X84804000Y-178689000D02*
X84804000Y-176943000D01*
X84804000Y-176943000D02*
X85090000Y-176657000D01*
X85344000Y-185039000D02*
X85344000Y-179229000D01*
X85344000Y-179229000D02*
X84804000Y-178689000D01*
D21*
X95250000Y-165481000D02*
X95313500Y-165544500D01*
X95313500Y-165544500D02*
X95250000Y-165481000D01*
D20*
X85344000Y-183769000D02*
X85344000Y-174709000D01*
X85344000Y-185039000D02*
X85344000Y-183769000D01*
X85344000Y-183769000D02*
X85344000Y-182499000D01*
X107540000Y-149667000D02*
X107950000Y-149257000D01*
D21*
X105029000Y-152178000D02*
X104299000Y-152178000D01*
X104299000Y-152178000D02*
X103378000Y-151257000D01*
D20*
X107950000Y-149257000D02*
X105029000Y-152178000D01*
X110998000Y-149257000D02*
X107950000Y-149257000D01*
X110998000Y-146261000D02*
X110998000Y-149257000D01*
X86235500Y-124519000D02*
X84904000Y-124519000D01*
X84904000Y-124519000D02*
X84899500Y-124523500D01*
X70235500Y-124519000D02*
X71503500Y-124519000D01*
X70294500Y-124523500D02*
X70235500Y-124519000D01*
X85979000Y-128016000D02*
X88752500Y-128016000D01*
X88752500Y-128016000D02*
X88816000Y-128079500D01*
X87376000Y-127381000D02*
X87503000Y-127381000D01*
X88657250Y-127920750D02*
X88816000Y-128079500D01*
X88042750Y-127920750D02*
X88657250Y-127920750D01*
X86074250Y-127920750D02*
X86995000Y-127920750D01*
X87503000Y-127381000D02*
X88042750Y-127920750D01*
X86995000Y-127920750D02*
X86995000Y-127762000D01*
X86995000Y-127762000D02*
X87376000Y-127381000D01*
X87355500Y-126619000D02*
X87355500Y-126639500D01*
X87355500Y-126639500D02*
X86074250Y-127920750D01*
X86074250Y-127920750D02*
X85979000Y-128016000D01*
X74147500Y-128016000D02*
X72750500Y-126619000D01*
X85979000Y-128016000D02*
X74147500Y-128016000D01*
X101441000Y-122682000D02*
X101219000Y-122682000D01*
X101219000Y-122682000D02*
X95821500Y-128079500D01*
X95821500Y-128079500D02*
X88816000Y-128079500D01*
X88816000Y-128079500D02*
X87355500Y-126619000D01*
X85760250Y-121574250D02*
X85696750Y-121574250D01*
X85280500Y-121158000D02*
X84105500Y-122333000D01*
X85696750Y-121574250D02*
X85280500Y-121158000D01*
X84105500Y-122682000D02*
X84105500Y-122333000D01*
X84105500Y-122682000D02*
X84105500Y-121380500D01*
X85913500Y-120777000D02*
X84709000Y-120777000D01*
X84709000Y-120713500D02*
X85872500Y-119550000D01*
X84709000Y-120777000D02*
X84709000Y-120713500D01*
X84105500Y-121380500D02*
X84709000Y-120777000D01*
X84105500Y-122682000D02*
X86550500Y-122682000D01*
X86233000Y-122682000D02*
X86233000Y-122364500D01*
X86550500Y-122682000D02*
X86233000Y-122682000D01*
X87185500Y-124519000D02*
X87185500Y-123317000D01*
X87185500Y-123317000D02*
X86233000Y-122364500D01*
X86169500Y-122301000D02*
X85598000Y-122301000D01*
X86233000Y-122364500D02*
X86169500Y-122301000D01*
X84105500Y-122682000D02*
X84652500Y-122682000D01*
X84652500Y-122682000D02*
X85760250Y-121574250D01*
X85760250Y-121574250D02*
X86235500Y-121099000D01*
X104521000Y-122872500D02*
X104457500Y-122809000D01*
X72453500Y-122745500D02*
X72517000Y-122682000D01*
X71503500Y-121099000D02*
X71503500Y-121346000D01*
X71503500Y-121346000D02*
X70548500Y-122301000D01*
X70548500Y-122301000D02*
X70548500Y-122054000D01*
X71503500Y-121099000D02*
X71503500Y-122171500D01*
X71503500Y-122171500D02*
X70993000Y-122682000D01*
X69373500Y-122682000D02*
X69373500Y-122585000D01*
X69373500Y-122585000D02*
X71181500Y-120777000D01*
X71181500Y-120777000D02*
X71503500Y-121099000D01*
X69373500Y-122682000D02*
X69920500Y-122682000D01*
X69920500Y-122682000D02*
X70548500Y-122054000D01*
X70548500Y-122054000D02*
X71503500Y-121099000D01*
X69373500Y-122682000D02*
X69373500Y-121700000D01*
X69373500Y-121700000D02*
X70739000Y-120334500D01*
X101981000Y-121285000D02*
X102139750Y-121443750D01*
X102139750Y-121443750D02*
X101981000Y-121285000D01*
X101981000Y-121285000D02*
X101981000Y-121602500D01*
X101441000Y-122682000D02*
X101988000Y-122682000D01*
X101988000Y-122682000D02*
X103571000Y-121099000D01*
X101441000Y-122682000D02*
X101441000Y-122142500D01*
X101441000Y-122142500D02*
X101981000Y-121602500D01*
X101981000Y-121602500D02*
X102806500Y-120777000D01*
X101441000Y-122682000D02*
X101441000Y-121317000D01*
X101441000Y-121317000D02*
X101981000Y-120777000D01*
X103571000Y-121099000D02*
X103024000Y-121099000D01*
X103024000Y-121099000D02*
X101441000Y-122682000D01*
X104521000Y-124519000D02*
X104521000Y-122872500D01*
X104457500Y-122809000D02*
X101568000Y-122809000D01*
X101568000Y-122809000D02*
X101441000Y-122682000D01*
X104521000Y-124519000D02*
X104521000Y-126576000D01*
X104521000Y-126576000D02*
X104564000Y-126619000D01*
X72453500Y-124519000D02*
X72453500Y-126322000D01*
X72453500Y-126322000D02*
X72750500Y-126619000D01*
X72453500Y-124519000D02*
X72453500Y-122745500D01*
X87185500Y-124519000D02*
X87185500Y-126449000D01*
X87185500Y-126449000D02*
X87355500Y-126619000D01*
X84232500Y-122809000D02*
X84105500Y-122682000D01*
X72517000Y-122682000D02*
X70993000Y-122682000D01*
X70993000Y-122682000D02*
X69373500Y-122682000D01*
D22*
X87185500Y-126449000D02*
X87355500Y-126619000D01*
X72453500Y-126322000D02*
X72750500Y-126619000D01*
D20*
X70739000Y-120205500D02*
X70739000Y-120334500D01*
X70739000Y-120334500D02*
X71503500Y-121099000D01*
X71140500Y-118999000D02*
X71140500Y-119804000D01*
X71140500Y-119804000D02*
X70739000Y-120205500D01*
X70739000Y-120205500D02*
X70167500Y-120777000D01*
X71503500Y-121099000D02*
X71503500Y-119362000D01*
X71503500Y-119362000D02*
X71140500Y-118999000D01*
X71181500Y-120777000D02*
X70167500Y-120777000D01*
X71181500Y-120777000D02*
X71503500Y-121099000D01*
X85913500Y-120777000D02*
X86235500Y-121099000D01*
X85872500Y-118999000D02*
X85872500Y-119550000D01*
X85872500Y-119550000D02*
X85872500Y-120736000D01*
X85872500Y-120736000D02*
X86235500Y-121099000D01*
X101917500Y-120777000D02*
X101981000Y-120777000D01*
X101917500Y-120777000D02*
X102806500Y-120777000D01*
X102806500Y-120777000D02*
X103060500Y-120777000D01*
X101981000Y-120777000D02*
X103060500Y-119697500D01*
X103060500Y-120777000D02*
X103060500Y-119697500D01*
X103060500Y-119697500D02*
X103060500Y-119273500D01*
X103060500Y-119273500D02*
X103271500Y-119062500D01*
X103249000Y-120777000D02*
X103060500Y-120777000D01*
X103249000Y-120777000D02*
X103571000Y-121099000D01*
D22*
X103571000Y-121099000D02*
X103571000Y-119362000D01*
X103571000Y-119362000D02*
X103271500Y-119062500D01*
X86235500Y-119362000D02*
X85872500Y-118999000D01*
X88135500Y-121099000D02*
X89487500Y-121099000D01*
X89487500Y-121099000D02*
X89725500Y-120861000D01*
X89725500Y-124925000D02*
X88541500Y-124925000D01*
X88541500Y-124925000D02*
X88135500Y-124519000D01*
X89555500Y-126619000D02*
X89555500Y-125095000D01*
X89555500Y-125095000D02*
X89725500Y-124925000D01*
X88135500Y-124519000D02*
X88135500Y-125199000D01*
X88135500Y-125199000D02*
X89555500Y-126619000D01*
X73403500Y-121099000D02*
X73403500Y-120251000D01*
X73403500Y-120251000D02*
X74993500Y-118661000D01*
X74993500Y-124925000D02*
X73809500Y-124925000D01*
X73809500Y-124925000D02*
X73403500Y-124519000D01*
X73403500Y-124519000D02*
X73403500Y-125072000D01*
X73403500Y-125072000D02*
X74950500Y-126619000D01*
X74993500Y-124925000D02*
X74993500Y-126576000D01*
X74993500Y-126576000D02*
X74950500Y-126619000D01*
X105471000Y-121099000D02*
X105471000Y-120314500D01*
X105471000Y-120314500D02*
X107061000Y-118724500D01*
X105471000Y-124519000D02*
X105471000Y-125326000D01*
X105471000Y-125326000D02*
X106764000Y-126619000D01*
X107061000Y-124925000D02*
X107061000Y-126322000D01*
X107061000Y-126322000D02*
X106764000Y-126619000D01*
X107061000Y-124925000D02*
X105877000Y-124925000D01*
X105877000Y-124925000D02*
X105471000Y-124519000D01*
D23*
G36*
X105283000Y-165542039D02*
X105283000Y-174514330D01*
X105134643Y-174736362D01*
X105082500Y-174998500D01*
X105082500Y-186182000D01*
X99000946Y-186182000D01*
X99302188Y-185881283D01*
X99336355Y-185799000D01*
X100584000Y-185799000D01*
X100874839Y-185741148D01*
X101121401Y-185576401D01*
X102931401Y-183766401D01*
X103096148Y-183519839D01*
X103154000Y-183229000D01*
X103154000Y-181406440D01*
X103584000Y-181406440D01*
X103819317Y-181362162D01*
X104035441Y-181223090D01*
X104180431Y-181010890D01*
X104231440Y-180759000D01*
X104231440Y-179159000D01*
X104187162Y-178923683D01*
X104048090Y-178707559D01*
X103835890Y-178562569D01*
X103584000Y-178511560D01*
X103579935Y-178511560D01*
X103789317Y-178472162D01*
X104005441Y-178333090D01*
X104150431Y-178120890D01*
X104201440Y-177869000D01*
X104201440Y-176969000D01*
X104157162Y-176733683D01*
X104018090Y-176517559D01*
X103805890Y-176372569D01*
X103714000Y-176353961D01*
X103714000Y-174722388D01*
X103789192Y-174647327D01*
X103931838Y-174303799D01*
X103932162Y-173931833D01*
X103790117Y-173588057D01*
X103527327Y-173324808D01*
X103183799Y-173182162D01*
X102811833Y-173181838D01*
X102468057Y-173323883D01*
X102204808Y-173586673D01*
X102062162Y-173930201D01*
X102061838Y-174302167D01*
X102194000Y-174622024D01*
X102194000Y-176351666D01*
X102118683Y-176365838D01*
X101902559Y-176504910D01*
X101856031Y-176573006D01*
X101713698Y-176430673D01*
X101480309Y-176334000D01*
X101039750Y-176334000D01*
X100881000Y-176492750D01*
X100881000Y-177292000D01*
X100901000Y-177292000D01*
X100901000Y-177546000D01*
X100881000Y-177546000D01*
X100881000Y-178345250D01*
X101039750Y-178504000D01*
X101480309Y-178504000D01*
X101634000Y-178440339D01*
X101634000Y-178511560D01*
X101584000Y-178511560D01*
X101348683Y-178555838D01*
X101132559Y-178694910D01*
X100987569Y-178907110D01*
X100936560Y-179159000D01*
X100936560Y-180759000D01*
X100980838Y-180994317D01*
X101119910Y-181210441D01*
X101332110Y-181355431D01*
X101584000Y-181406440D01*
X101634000Y-181406440D01*
X101634000Y-182914198D01*
X100269198Y-184279000D01*
X99336747Y-184279000D01*
X99303656Y-184198914D01*
X99068717Y-183963565D01*
X99129317Y-183952162D01*
X99345441Y-183813090D01*
X99490431Y-183600890D01*
X99541440Y-183349000D01*
X99541440Y-181649000D01*
X99497162Y-181413683D01*
X99484496Y-181394000D01*
X99710309Y-181394000D01*
X99943698Y-181297327D01*
X100122327Y-181118699D01*
X100219000Y-180885310D01*
X100219000Y-180244750D01*
X100060250Y-180086000D01*
X98711000Y-180086000D01*
X98711000Y-180106000D01*
X98457000Y-180106000D01*
X98457000Y-180086000D01*
X97107750Y-180086000D01*
X96949000Y-180244750D01*
X96949000Y-180885310D01*
X97011385Y-181035921D01*
X96958683Y-181045838D01*
X96742559Y-181184910D01*
X96597569Y-181397110D01*
X96581504Y-181476443D01*
X96346283Y-181240812D01*
X95854101Y-181036440D01*
X95954000Y-181036440D01*
X96189317Y-180992162D01*
X96405441Y-180853090D01*
X96550431Y-180640890D01*
X96601440Y-180389000D01*
X96601440Y-179936362D01*
X96949000Y-179588802D01*
X96949000Y-179673250D01*
X97107750Y-179832000D01*
X98457000Y-179832000D01*
X98457000Y-178682750D01*
X98711000Y-178682750D01*
X98711000Y-179832000D01*
X100060250Y-179832000D01*
X100219000Y-179673250D01*
X100219000Y-179032690D01*
X100122327Y-178799301D01*
X99943698Y-178620673D01*
X99710309Y-178524000D01*
X98869750Y-178524000D01*
X98711000Y-178682750D01*
X98457000Y-178682750D01*
X98298250Y-178524000D01*
X97534000Y-178524000D01*
X97534000Y-177704750D01*
X99519000Y-177704750D01*
X99519000Y-177995310D01*
X99615673Y-178228699D01*
X99794302Y-178407327D01*
X100027691Y-178504000D01*
X100468250Y-178504000D01*
X100627000Y-178345250D01*
X100627000Y-177546000D01*
X99677750Y-177546000D01*
X99519000Y-177704750D01*
X97534000Y-177704750D01*
X97534000Y-176842690D01*
X99519000Y-176842690D01*
X99519000Y-177133250D01*
X99677750Y-177292000D01*
X100627000Y-177292000D01*
X100627000Y-176492750D01*
X100468250Y-176334000D01*
X100027691Y-176334000D01*
X99794302Y-176430673D01*
X99615673Y-176609301D01*
X99519000Y-176842690D01*
X97534000Y-176842690D01*
X97534000Y-174171463D01*
X97566192Y-174139327D01*
X97708838Y-173795799D01*
X97709162Y-173423833D01*
X97706107Y-173416440D01*
X98494000Y-173416440D01*
X98729317Y-173372162D01*
X98945441Y-173233090D01*
X99090431Y-173020890D01*
X99141440Y-172769000D01*
X99141440Y-171569000D01*
X99097162Y-171333683D01*
X98958090Y-171117559D01*
X98888289Y-171069866D01*
X98945441Y-171033090D01*
X99090431Y-170820890D01*
X99141440Y-170569000D01*
X99141440Y-169369000D01*
X99097162Y-169133683D01*
X98958090Y-168917559D01*
X98745890Y-168772569D01*
X98550000Y-168732900D01*
X98550000Y-168075463D01*
X98582192Y-168043327D01*
X98724838Y-167699799D01*
X98725162Y-167327833D01*
X98583117Y-166984057D01*
X98320327Y-166720808D01*
X97976799Y-166578162D01*
X97604833Y-166577838D01*
X97261057Y-166719883D01*
X96997808Y-166982673D01*
X96855162Y-167326201D01*
X96854838Y-167698167D01*
X96996883Y-168041943D01*
X97030000Y-168075118D01*
X97030000Y-169069646D01*
X96997569Y-169117110D01*
X96946560Y-169369000D01*
X96946560Y-169821638D01*
X96634320Y-170133878D01*
X96588833Y-170133838D01*
X96245057Y-170275883D01*
X95981808Y-170538673D01*
X95839162Y-170882201D01*
X95838899Y-171184000D01*
X93920844Y-171184000D01*
X93878090Y-171117559D01*
X93808289Y-171069866D01*
X93865441Y-171033090D01*
X94010431Y-170820890D01*
X94061440Y-170569000D01*
X94061440Y-169369000D01*
X94017162Y-169133683D01*
X93878090Y-168917559D01*
X93724000Y-168812274D01*
X93724000Y-168315597D01*
X93746943Y-168306117D01*
X94010192Y-168043327D01*
X94152838Y-167699799D01*
X94153162Y-167327833D01*
X94011117Y-166984057D01*
X93776470Y-166749000D01*
X94742000Y-166749000D01*
X95032839Y-166691148D01*
X95279401Y-166526401D01*
X95389680Y-166416122D01*
X95435167Y-166416162D01*
X95778943Y-166274117D01*
X96042192Y-166011327D01*
X96184838Y-165667799D01*
X96185162Y-165295833D01*
X96043117Y-164952057D01*
X95780327Y-164688808D01*
X95436799Y-164546162D01*
X95064833Y-164545838D01*
X94721057Y-164687883D01*
X94457808Y-164950673D01*
X94342236Y-165229000D01*
X87630000Y-165229000D01*
X87339161Y-165286852D01*
X87092599Y-165451599D01*
X84044599Y-168499599D01*
X83879852Y-168746161D01*
X83822000Y-169037000D01*
X83822000Y-173431560D01*
X83804000Y-173431560D01*
X83568683Y-173475838D01*
X83352559Y-173614910D01*
X83207569Y-173827110D01*
X83156560Y-174079000D01*
X83156560Y-175679000D01*
X83200838Y-175914317D01*
X83339910Y-176130441D01*
X83552110Y-176275431D01*
X83804000Y-176326440D01*
X84054086Y-176326440D01*
X83893979Y-176566057D01*
X83819000Y-176943000D01*
X83819000Y-177241560D01*
X83804000Y-177241560D01*
X83568683Y-177285838D01*
X83352559Y-177424910D01*
X83207569Y-177637110D01*
X83156560Y-177889000D01*
X83156560Y-179489000D01*
X83200838Y-179724317D01*
X83339910Y-179940441D01*
X83552110Y-180085431D01*
X83804000Y-180136440D01*
X84359000Y-180136440D01*
X84359000Y-181384005D01*
X84085812Y-181656717D01*
X83859258Y-182202319D01*
X83858743Y-182793089D01*
X84084344Y-183339086D01*
X84359000Y-183614222D01*
X84359000Y-183924005D01*
X84085812Y-184196717D01*
X83859258Y-184742319D01*
X83858743Y-185333089D01*
X84084344Y-185879086D01*
X84386730Y-186182000D01*
X78105000Y-186182000D01*
X78105000Y-178974750D01*
X79169000Y-178974750D01*
X79169000Y-179615310D01*
X79265673Y-179848699D01*
X79444302Y-180027327D01*
X79677691Y-180124000D01*
X80518250Y-180124000D01*
X80677000Y-179965250D01*
X80677000Y-178816000D01*
X80931000Y-178816000D01*
X80931000Y-179965250D01*
X81089750Y-180124000D01*
X81930309Y-180124000D01*
X82163698Y-180027327D01*
X82342327Y-179848699D01*
X82439000Y-179615310D01*
X82439000Y-178974750D01*
X82280250Y-178816000D01*
X80931000Y-178816000D01*
X80677000Y-178816000D01*
X79327750Y-178816000D01*
X79169000Y-178974750D01*
X78105000Y-178974750D01*
X78105000Y-177762690D01*
X79169000Y-177762690D01*
X79169000Y-178403250D01*
X79327750Y-178562000D01*
X80677000Y-178562000D01*
X80677000Y-177412750D01*
X80931000Y-177412750D01*
X80931000Y-178562000D01*
X82280250Y-178562000D01*
X82439000Y-178403250D01*
X82439000Y-177762690D01*
X82342327Y-177529301D01*
X82163698Y-177350673D01*
X81930309Y-177254000D01*
X81089750Y-177254000D01*
X80931000Y-177412750D01*
X80677000Y-177412750D01*
X80518250Y-177254000D01*
X79677691Y-177254000D01*
X79444302Y-177350673D01*
X79265673Y-177529301D01*
X79169000Y-177762690D01*
X78105000Y-177762690D01*
X78105000Y-176695921D01*
X79248180Y-175006002D01*
X79327748Y-175006002D01*
X79169000Y-175164750D01*
X79169000Y-175805310D01*
X79265673Y-176038699D01*
X79444302Y-176217327D01*
X79677691Y-176314000D01*
X80518250Y-176314000D01*
X80677000Y-176155250D01*
X80677000Y-175006000D01*
X80931000Y-175006000D01*
X80931000Y-176155250D01*
X81089750Y-176314000D01*
X81930309Y-176314000D01*
X82163698Y-176217327D01*
X82342327Y-176038699D01*
X82439000Y-175805310D01*
X82439000Y-175164750D01*
X82280250Y-175006000D01*
X80931000Y-175006000D01*
X80677000Y-175006000D01*
X80657000Y-175006000D01*
X80657000Y-174752000D01*
X80677000Y-174752000D01*
X80677000Y-173602750D01*
X80931000Y-173602750D01*
X80931000Y-174752000D01*
X82280250Y-174752000D01*
X82439000Y-174593250D01*
X82439000Y-173952690D01*
X82342327Y-173719301D01*
X82163698Y-173540673D01*
X81930309Y-173444000D01*
X81089750Y-173444000D01*
X80931000Y-173602750D01*
X80677000Y-173602750D01*
X80518250Y-173444000D01*
X80304829Y-173444000D01*
X89729417Y-159512000D01*
X97745451Y-159512000D01*
X105283000Y-165542039D01*
X105283000Y-165542039D01*
G37*
X105283000Y-165542039D02*
X105283000Y-174514330D01*
X105134643Y-174736362D01*
X105082500Y-174998500D01*
X105082500Y-186182000D01*
X99000946Y-186182000D01*
X99302188Y-185881283D01*
X99336355Y-185799000D01*
X100584000Y-185799000D01*
X100874839Y-185741148D01*
X101121401Y-185576401D01*
X102931401Y-183766401D01*
X103096148Y-183519839D01*
X103154000Y-183229000D01*
X103154000Y-181406440D01*
X103584000Y-181406440D01*
X103819317Y-181362162D01*
X104035441Y-181223090D01*
X104180431Y-181010890D01*
X104231440Y-180759000D01*
X104231440Y-179159000D01*
X104187162Y-178923683D01*
X104048090Y-178707559D01*
X103835890Y-178562569D01*
X103584000Y-178511560D01*
X103579935Y-178511560D01*
X103789317Y-178472162D01*
X104005441Y-178333090D01*
X104150431Y-178120890D01*
X104201440Y-177869000D01*
X104201440Y-176969000D01*
X104157162Y-176733683D01*
X104018090Y-176517559D01*
X103805890Y-176372569D01*
X103714000Y-176353961D01*
X103714000Y-174722388D01*
X103789192Y-174647327D01*
X103931838Y-174303799D01*
X103932162Y-173931833D01*
X103790117Y-173588057D01*
X103527327Y-173324808D01*
X103183799Y-173182162D01*
X102811833Y-173181838D01*
X102468057Y-173323883D01*
X102204808Y-173586673D01*
X102062162Y-173930201D01*
X102061838Y-174302167D01*
X102194000Y-174622024D01*
X102194000Y-176351666D01*
X102118683Y-176365838D01*
X101902559Y-176504910D01*
X101856031Y-176573006D01*
X101713698Y-176430673D01*
X101480309Y-176334000D01*
X101039750Y-176334000D01*
X100881000Y-176492750D01*
X100881000Y-177292000D01*
X100901000Y-177292000D01*
X100901000Y-177546000D01*
X100881000Y-177546000D01*
X100881000Y-178345250D01*
X101039750Y-178504000D01*
X101480309Y-178504000D01*
X101634000Y-178440339D01*
X101634000Y-178511560D01*
X101584000Y-178511560D01*
X101348683Y-178555838D01*
X101132559Y-178694910D01*
X100987569Y-178907110D01*
X100936560Y-179159000D01*
X100936560Y-180759000D01*
X100980838Y-180994317D01*
X101119910Y-181210441D01*
X101332110Y-181355431D01*
X101584000Y-181406440D01*
X101634000Y-181406440D01*
X101634000Y-182914198D01*
X100269198Y-184279000D01*
X99336747Y-184279000D01*
X99303656Y-184198914D01*
X99068717Y-183963565D01*
X99129317Y-183952162D01*
X99345441Y-183813090D01*
X99490431Y-183600890D01*
X99541440Y-183349000D01*
X99541440Y-181649000D01*
X99497162Y-181413683D01*
X99484496Y-181394000D01*
X99710309Y-181394000D01*
X99943698Y-181297327D01*
X100122327Y-181118699D01*
X100219000Y-180885310D01*
X100219000Y-180244750D01*
X100060250Y-180086000D01*
X98711000Y-180086000D01*
X98711000Y-180106000D01*
X98457000Y-180106000D01*
X98457000Y-180086000D01*
X97107750Y-180086000D01*
X96949000Y-180244750D01*
X96949000Y-180885310D01*
X97011385Y-181035921D01*
X96958683Y-181045838D01*
X96742559Y-181184910D01*
X96597569Y-181397110D01*
X96581504Y-181476443D01*
X96346283Y-181240812D01*
X95854101Y-181036440D01*
X95954000Y-181036440D01*
X96189317Y-180992162D01*
X96405441Y-180853090D01*
X96550431Y-180640890D01*
X96601440Y-180389000D01*
X96601440Y-179936362D01*
X96949000Y-179588802D01*
X96949000Y-179673250D01*
X97107750Y-179832000D01*
X98457000Y-179832000D01*
X98457000Y-178682750D01*
X98711000Y-178682750D01*
X98711000Y-179832000D01*
X100060250Y-179832000D01*
X100219000Y-179673250D01*
X100219000Y-179032690D01*
X100122327Y-178799301D01*
X99943698Y-178620673D01*
X99710309Y-178524000D01*
X98869750Y-178524000D01*
X98711000Y-178682750D01*
X98457000Y-178682750D01*
X98298250Y-178524000D01*
X97534000Y-178524000D01*
X97534000Y-177704750D01*
X99519000Y-177704750D01*
X99519000Y-177995310D01*
X99615673Y-178228699D01*
X99794302Y-178407327D01*
X100027691Y-178504000D01*
X100468250Y-178504000D01*
X100627000Y-178345250D01*
X100627000Y-177546000D01*
X99677750Y-177546000D01*
X99519000Y-177704750D01*
X97534000Y-177704750D01*
X97534000Y-176842690D01*
X99519000Y-176842690D01*
X99519000Y-177133250D01*
X99677750Y-177292000D01*
X100627000Y-177292000D01*
X100627000Y-176492750D01*
X100468250Y-176334000D01*
X100027691Y-176334000D01*
X99794302Y-176430673D01*
X99615673Y-176609301D01*
X99519000Y-176842690D01*
X97534000Y-176842690D01*
X97534000Y-174171463D01*
X97566192Y-174139327D01*
X97708838Y-173795799D01*
X97709162Y-173423833D01*
X97706107Y-173416440D01*
X98494000Y-173416440D01*
X98729317Y-173372162D01*
X98945441Y-173233090D01*
X99090431Y-173020890D01*
X99141440Y-172769000D01*
X99141440Y-171569000D01*
X99097162Y-171333683D01*
X98958090Y-171117559D01*
X98888289Y-171069866D01*
X98945441Y-171033090D01*
X99090431Y-170820890D01*
X99141440Y-170569000D01*
X99141440Y-169369000D01*
X99097162Y-169133683D01*
X98958090Y-168917559D01*
X98745890Y-168772569D01*
X98550000Y-168732900D01*
X98550000Y-168075463D01*
X98582192Y-168043327D01*
X98724838Y-167699799D01*
X98725162Y-167327833D01*
X98583117Y-166984057D01*
X98320327Y-166720808D01*
X97976799Y-166578162D01*
X97604833Y-166577838D01*
X97261057Y-166719883D01*
X96997808Y-166982673D01*
X96855162Y-167326201D01*
X96854838Y-167698167D01*
X96996883Y-168041943D01*
X97030000Y-168075118D01*
X97030000Y-169069646D01*
X96997569Y-169117110D01*
X96946560Y-169369000D01*
X96946560Y-169821638D01*
X96634320Y-170133878D01*
X96588833Y-170133838D01*
X96245057Y-170275883D01*
X95981808Y-170538673D01*
X95839162Y-170882201D01*
X95838899Y-171184000D01*
X93920844Y-171184000D01*
X93878090Y-171117559D01*
X93808289Y-171069866D01*
X93865441Y-171033090D01*
X94010431Y-170820890D01*
X94061440Y-170569000D01*
X94061440Y-169369000D01*
X94017162Y-169133683D01*
X93878090Y-168917559D01*
X93724000Y-168812274D01*
X93724000Y-168315597D01*
X93746943Y-168306117D01*
X94010192Y-168043327D01*
X94152838Y-167699799D01*
X94153162Y-167327833D01*
X94011117Y-166984057D01*
X93776470Y-166749000D01*
X94742000Y-166749000D01*
X95032839Y-166691148D01*
X95279401Y-166526401D01*
X95389680Y-166416122D01*
X95435167Y-166416162D01*
X95778943Y-166274117D01*
X96042192Y-166011327D01*
X96184838Y-165667799D01*
X96185162Y-165295833D01*
X96043117Y-164952057D01*
X95780327Y-164688808D01*
X95436799Y-164546162D01*
X95064833Y-164545838D01*
X94721057Y-164687883D01*
X94457808Y-164950673D01*
X94342236Y-165229000D01*
X87630000Y-165229000D01*
X87339161Y-165286852D01*
X87092599Y-165451599D01*
X84044599Y-168499599D01*
X83879852Y-168746161D01*
X83822000Y-169037000D01*
X83822000Y-173431560D01*
X83804000Y-173431560D01*
X83568683Y-173475838D01*
X83352559Y-173614910D01*
X83207569Y-173827110D01*
X83156560Y-174079000D01*
X83156560Y-175679000D01*
X83200838Y-175914317D01*
X83339910Y-176130441D01*
X83552110Y-176275431D01*
X83804000Y-176326440D01*
X84054086Y-176326440D01*
X83893979Y-176566057D01*
X83819000Y-176943000D01*
X83819000Y-177241560D01*
X83804000Y-177241560D01*
X83568683Y-177285838D01*
X83352559Y-177424910D01*
X83207569Y-177637110D01*
X83156560Y-177889000D01*
X83156560Y-179489000D01*
X83200838Y-179724317D01*
X83339910Y-179940441D01*
X83552110Y-180085431D01*
X83804000Y-180136440D01*
X84359000Y-180136440D01*
X84359000Y-181384005D01*
X84085812Y-181656717D01*
X83859258Y-182202319D01*
X83858743Y-182793089D01*
X84084344Y-183339086D01*
X84359000Y-183614222D01*
X84359000Y-183924005D01*
X84085812Y-184196717D01*
X83859258Y-184742319D01*
X83858743Y-185333089D01*
X84084344Y-185879086D01*
X84386730Y-186182000D01*
X78105000Y-186182000D01*
X78105000Y-178974750D01*
X79169000Y-178974750D01*
X79169000Y-179615310D01*
X79265673Y-179848699D01*
X79444302Y-180027327D01*
X79677691Y-180124000D01*
X80518250Y-180124000D01*
X80677000Y-179965250D01*
X80677000Y-178816000D01*
X80931000Y-178816000D01*
X80931000Y-179965250D01*
X81089750Y-180124000D01*
X81930309Y-180124000D01*
X82163698Y-180027327D01*
X82342327Y-179848699D01*
X82439000Y-179615310D01*
X82439000Y-178974750D01*
X82280250Y-178816000D01*
X80931000Y-178816000D01*
X80677000Y-178816000D01*
X79327750Y-178816000D01*
X79169000Y-178974750D01*
X78105000Y-178974750D01*
X78105000Y-177762690D01*
X79169000Y-177762690D01*
X79169000Y-178403250D01*
X79327750Y-178562000D01*
X80677000Y-178562000D01*
X80677000Y-177412750D01*
X80931000Y-177412750D01*
X80931000Y-178562000D01*
X82280250Y-178562000D01*
X82439000Y-178403250D01*
X82439000Y-177762690D01*
X82342327Y-177529301D01*
X82163698Y-177350673D01*
X81930309Y-177254000D01*
X81089750Y-177254000D01*
X80931000Y-177412750D01*
X80677000Y-177412750D01*
X80518250Y-177254000D01*
X79677691Y-177254000D01*
X79444302Y-177350673D01*
X79265673Y-177529301D01*
X79169000Y-177762690D01*
X78105000Y-177762690D01*
X78105000Y-176695921D01*
X79248180Y-175006002D01*
X79327748Y-175006002D01*
X79169000Y-175164750D01*
X79169000Y-175805310D01*
X79265673Y-176038699D01*
X79444302Y-176217327D01*
X79677691Y-176314000D01*
X80518250Y-176314000D01*
X80677000Y-176155250D01*
X80677000Y-175006000D01*
X80931000Y-175006000D01*
X80931000Y-176155250D01*
X81089750Y-176314000D01*
X81930309Y-176314000D01*
X82163698Y-176217327D01*
X82342327Y-176038699D01*
X82439000Y-175805310D01*
X82439000Y-175164750D01*
X82280250Y-175006000D01*
X80931000Y-175006000D01*
X80677000Y-175006000D01*
X80657000Y-175006000D01*
X80657000Y-174752000D01*
X80677000Y-174752000D01*
X80677000Y-173602750D01*
X80931000Y-173602750D01*
X80931000Y-174752000D01*
X82280250Y-174752000D01*
X82439000Y-174593250D01*
X82439000Y-173952690D01*
X82342327Y-173719301D01*
X82163698Y-173540673D01*
X81930309Y-173444000D01*
X81089750Y-173444000D01*
X80931000Y-173602750D01*
X80677000Y-173602750D01*
X80518250Y-173444000D01*
X80304829Y-173444000D01*
X89729417Y-159512000D01*
X97745451Y-159512000D01*
X105283000Y-165542039D01*
G36*
X89509910Y-173220441D02*
X89722110Y-173365431D01*
X89974000Y-173416440D01*
X90761554Y-173416440D01*
X90759162Y-173422201D01*
X90758838Y-173794167D01*
X90900883Y-174137943D01*
X90934000Y-174171118D01*
X90934000Y-176354000D01*
X90709750Y-176354000D01*
X90551000Y-176512750D01*
X90551000Y-177462000D01*
X90571000Y-177462000D01*
X90571000Y-177716000D01*
X90551000Y-177716000D01*
X90551000Y-177736000D01*
X90297000Y-177736000D01*
X90297000Y-177716000D01*
X90277000Y-177716000D01*
X90277000Y-177462000D01*
X90297000Y-177462000D01*
X90297000Y-176512750D01*
X90138250Y-176354000D01*
X89914000Y-176354000D01*
X89914000Y-176149000D01*
X89856148Y-175858161D01*
X89691401Y-175611599D01*
X89073122Y-174993320D01*
X89073162Y-174947833D01*
X88931117Y-174604057D01*
X88668327Y-174340808D01*
X88324799Y-174198162D01*
X87952833Y-174197838D01*
X87609057Y-174339883D01*
X87345808Y-174602673D01*
X87203162Y-174946201D01*
X87202838Y-175318167D01*
X87344883Y-175661943D01*
X87607673Y-175925192D01*
X87951201Y-176067838D01*
X87998077Y-176067879D01*
X88394000Y-176463802D01*
X88394000Y-178519000D01*
X88451852Y-178809839D01*
X88616599Y-179056401D01*
X89326560Y-179766362D01*
X89326560Y-179981638D01*
X88616599Y-180691599D01*
X88451852Y-180938161D01*
X88417132Y-181112708D01*
X88112721Y-181002282D01*
X87522542Y-181028685D01*
X87099920Y-181203741D01*
X87019647Y-181455042D01*
X87884000Y-182319395D01*
X87898143Y-182305253D01*
X88077748Y-182484858D01*
X88063605Y-182499000D01*
X88077748Y-182513143D01*
X87898143Y-182692748D01*
X87884000Y-182678605D01*
X87019647Y-183542958D01*
X87091852Y-183769000D01*
X87019647Y-183995042D01*
X87884000Y-184859395D01*
X87898143Y-184845253D01*
X88077748Y-185024858D01*
X88063605Y-185039000D01*
X88927958Y-185903353D01*
X89145640Y-185833819D01*
X89164344Y-185879086D01*
X89466730Y-186182000D01*
X88716716Y-186182000D01*
X88748353Y-186082958D01*
X87884000Y-185218605D01*
X87019647Y-186082958D01*
X87051284Y-186182000D01*
X86300946Y-186182000D01*
X86602188Y-185881283D01*
X86621951Y-185833688D01*
X86840042Y-185903353D01*
X87704395Y-185039000D01*
X86840042Y-184174647D01*
X86622360Y-184244181D01*
X86603656Y-184198914D01*
X86329000Y-183923778D01*
X86329000Y-183613995D01*
X86602188Y-183341283D01*
X86621951Y-183293688D01*
X86840042Y-183363353D01*
X87704395Y-182499000D01*
X86840042Y-181634647D01*
X86622360Y-181704181D01*
X86603656Y-181658914D01*
X86329000Y-181383778D01*
X86329000Y-179845433D01*
X86400431Y-179740890D01*
X86451440Y-179489000D01*
X86451440Y-177889000D01*
X86407162Y-177653683D01*
X86329000Y-177532216D01*
X86329000Y-176035433D01*
X86400431Y-175930890D01*
X86451440Y-175679000D01*
X86451440Y-174994560D01*
X88292000Y-173154000D01*
X89467156Y-173154000D01*
X89509910Y-173220441D01*
X89509910Y-173220441D01*
G37*
X89509910Y-173220441D02*
X89722110Y-173365431D01*
X89974000Y-173416440D01*
X90761554Y-173416440D01*
X90759162Y-173422201D01*
X90758838Y-173794167D01*
X90900883Y-174137943D01*
X90934000Y-174171118D01*
X90934000Y-176354000D01*
X90709750Y-176354000D01*
X90551000Y-176512750D01*
X90551000Y-177462000D01*
X90571000Y-177462000D01*
X90571000Y-177716000D01*
X90551000Y-177716000D01*
X90551000Y-177736000D01*
X90297000Y-177736000D01*
X90297000Y-177716000D01*
X90277000Y-177716000D01*
X90277000Y-177462000D01*
X90297000Y-177462000D01*
X90297000Y-176512750D01*
X90138250Y-176354000D01*
X89914000Y-176354000D01*
X89914000Y-176149000D01*
X89856148Y-175858161D01*
X89691401Y-175611599D01*
X89073122Y-174993320D01*
X89073162Y-174947833D01*
X88931117Y-174604057D01*
X88668327Y-174340808D01*
X88324799Y-174198162D01*
X87952833Y-174197838D01*
X87609057Y-174339883D01*
X87345808Y-174602673D01*
X87203162Y-174946201D01*
X87202838Y-175318167D01*
X87344883Y-175661943D01*
X87607673Y-175925192D01*
X87951201Y-176067838D01*
X87998077Y-176067879D01*
X88394000Y-176463802D01*
X88394000Y-178519000D01*
X88451852Y-178809839D01*
X88616599Y-179056401D01*
X89326560Y-179766362D01*
X89326560Y-179981638D01*
X88616599Y-180691599D01*
X88451852Y-180938161D01*
X88417132Y-181112708D01*
X88112721Y-181002282D01*
X87522542Y-181028685D01*
X87099920Y-181203741D01*
X87019647Y-181455042D01*
X87884000Y-182319395D01*
X87898143Y-182305253D01*
X88077748Y-182484858D01*
X88063605Y-182499000D01*
X88077748Y-182513143D01*
X87898143Y-182692748D01*
X87884000Y-182678605D01*
X87019647Y-183542958D01*
X87091852Y-183769000D01*
X87019647Y-183995042D01*
X87884000Y-184859395D01*
X87898143Y-184845253D01*
X88077748Y-185024858D01*
X88063605Y-185039000D01*
X88927958Y-185903353D01*
X89145640Y-185833819D01*
X89164344Y-185879086D01*
X89466730Y-186182000D01*
X88716716Y-186182000D01*
X88748353Y-186082958D01*
X87884000Y-185218605D01*
X87019647Y-186082958D01*
X87051284Y-186182000D01*
X86300946Y-186182000D01*
X86602188Y-185881283D01*
X86621951Y-185833688D01*
X86840042Y-185903353D01*
X87704395Y-185039000D01*
X86840042Y-184174647D01*
X86622360Y-184244181D01*
X86603656Y-184198914D01*
X86329000Y-183923778D01*
X86329000Y-183613995D01*
X86602188Y-183341283D01*
X86621951Y-183293688D01*
X86840042Y-183363353D01*
X87704395Y-182499000D01*
X86840042Y-181634647D01*
X86622360Y-181704181D01*
X86603656Y-181658914D01*
X86329000Y-181383778D01*
X86329000Y-179845433D01*
X86400431Y-179740890D01*
X86451440Y-179489000D01*
X86451440Y-177889000D01*
X86407162Y-177653683D01*
X86329000Y-177532216D01*
X86329000Y-176035433D01*
X86400431Y-175930890D01*
X86451440Y-175679000D01*
X86451440Y-174994560D01*
X88292000Y-173154000D01*
X89467156Y-173154000D01*
X89509910Y-173220441D01*
G36*
X95839162Y-173422201D02*
X95838838Y-173794167D01*
X95980883Y-174137943D01*
X96014000Y-174171118D01*
X96014000Y-176354000D01*
X95789750Y-176354000D01*
X95631000Y-176512750D01*
X95631000Y-177462000D01*
X95651000Y-177462000D01*
X95651000Y-177716000D01*
X95631000Y-177716000D01*
X95631000Y-177736000D01*
X95377000Y-177736000D01*
X95377000Y-177716000D01*
X94577750Y-177716000D01*
X94419000Y-177874750D01*
X94419000Y-178315309D01*
X94515673Y-178548698D01*
X94656910Y-178689936D01*
X94602559Y-178724910D01*
X94457569Y-178937110D01*
X94406560Y-179189000D01*
X94406560Y-179811638D01*
X94061440Y-180156758D01*
X94061440Y-179189000D01*
X94017162Y-178953683D01*
X93878090Y-178737559D01*
X93809994Y-178691031D01*
X93952327Y-178548698D01*
X94049000Y-178315309D01*
X94049000Y-177874750D01*
X93890250Y-177716000D01*
X93091000Y-177716000D01*
X93091000Y-177736000D01*
X92837000Y-177736000D01*
X92837000Y-177716000D01*
X92817000Y-177716000D01*
X92817000Y-177462000D01*
X92837000Y-177462000D01*
X92837000Y-176512750D01*
X93091000Y-176512750D01*
X93091000Y-177462000D01*
X93890250Y-177462000D01*
X94049000Y-177303250D01*
X94049000Y-176862691D01*
X94419000Y-176862691D01*
X94419000Y-177303250D01*
X94577750Y-177462000D01*
X95377000Y-177462000D01*
X95377000Y-176512750D01*
X95218250Y-176354000D01*
X94927690Y-176354000D01*
X94694301Y-176450673D01*
X94515673Y-176629302D01*
X94419000Y-176862691D01*
X94049000Y-176862691D01*
X93952327Y-176629302D01*
X93773699Y-176450673D01*
X93540310Y-176354000D01*
X93249750Y-176354000D01*
X93091000Y-176512750D01*
X92837000Y-176512750D01*
X92678250Y-176354000D01*
X92454000Y-176354000D01*
X92454000Y-174171463D01*
X92486192Y-174139327D01*
X92628838Y-173795799D01*
X92629162Y-173423833D01*
X92626107Y-173416440D01*
X93414000Y-173416440D01*
X93649317Y-173372162D01*
X93865441Y-173233090D01*
X93919481Y-173154000D01*
X95950529Y-173154000D01*
X95839162Y-173422201D01*
X95839162Y-173422201D01*
G37*
X95839162Y-173422201D02*
X95838838Y-173794167D01*
X95980883Y-174137943D01*
X96014000Y-174171118D01*
X96014000Y-176354000D01*
X95789750Y-176354000D01*
X95631000Y-176512750D01*
X95631000Y-177462000D01*
X95651000Y-177462000D01*
X95651000Y-177716000D01*
X95631000Y-177716000D01*
X95631000Y-177736000D01*
X95377000Y-177736000D01*
X95377000Y-177716000D01*
X94577750Y-177716000D01*
X94419000Y-177874750D01*
X94419000Y-178315309D01*
X94515673Y-178548698D01*
X94656910Y-178689936D01*
X94602559Y-178724910D01*
X94457569Y-178937110D01*
X94406560Y-179189000D01*
X94406560Y-179811638D01*
X94061440Y-180156758D01*
X94061440Y-179189000D01*
X94017162Y-178953683D01*
X93878090Y-178737559D01*
X93809994Y-178691031D01*
X93952327Y-178548698D01*
X94049000Y-178315309D01*
X94049000Y-177874750D01*
X93890250Y-177716000D01*
X93091000Y-177716000D01*
X93091000Y-177736000D01*
X92837000Y-177736000D01*
X92837000Y-177716000D01*
X92817000Y-177716000D01*
X92817000Y-177462000D01*
X92837000Y-177462000D01*
X92837000Y-176512750D01*
X93091000Y-176512750D01*
X93091000Y-177462000D01*
X93890250Y-177462000D01*
X94049000Y-177303250D01*
X94049000Y-176862691D01*
X94419000Y-176862691D01*
X94419000Y-177303250D01*
X94577750Y-177462000D01*
X95377000Y-177462000D01*
X95377000Y-176512750D01*
X95218250Y-176354000D01*
X94927690Y-176354000D01*
X94694301Y-176450673D01*
X94515673Y-176629302D01*
X94419000Y-176862691D01*
X94049000Y-176862691D01*
X93952327Y-176629302D01*
X93773699Y-176450673D01*
X93540310Y-176354000D01*
X93249750Y-176354000D01*
X93091000Y-176512750D01*
X92837000Y-176512750D01*
X92678250Y-176354000D01*
X92454000Y-176354000D01*
X92454000Y-174171463D01*
X92486192Y-174139327D01*
X92628838Y-173795799D01*
X92629162Y-173423833D01*
X92626107Y-173416440D01*
X93414000Y-173416440D01*
X93649317Y-173372162D01*
X93865441Y-173233090D01*
X93919481Y-173154000D01*
X95950529Y-173154000D01*
X95839162Y-173422201D01*
G36*
X88734942Y-148412255D02*
X88772611Y-148445759D01*
X88836500Y-148463000D01*
X90487500Y-148463000D01*
X90487500Y-156146500D01*
X88836500Y-156146500D01*
X88787090Y-156156506D01*
X88730830Y-156203053D01*
X76830532Y-174053500D01*
X61849000Y-174053500D01*
X61849000Y-169203000D01*
X62129560Y-169203000D01*
X62129560Y-170903000D01*
X62173838Y-171138317D01*
X62312910Y-171354441D01*
X62525110Y-171499431D01*
X62777000Y-171550440D01*
X64477000Y-171550440D01*
X64712317Y-171506162D01*
X64928441Y-171367090D01*
X65073431Y-171154890D01*
X65124440Y-170903000D01*
X65124440Y-169203000D01*
X65080162Y-168967683D01*
X64941090Y-168751559D01*
X64728890Y-168606569D01*
X64620893Y-168584699D01*
X64898645Y-168279924D01*
X65068476Y-167869890D01*
X64947155Y-167640000D01*
X63754000Y-167640000D01*
X63754000Y-167660000D01*
X63500000Y-167660000D01*
X63500000Y-167640000D01*
X62306845Y-167640000D01*
X62185524Y-167869890D01*
X62355355Y-168279924D01*
X62631501Y-168582937D01*
X62541683Y-168599838D01*
X62325559Y-168738910D01*
X62180569Y-168951110D01*
X62129560Y-169203000D01*
X61849000Y-169203000D01*
X61849000Y-164973000D01*
X62112907Y-164973000D01*
X62225946Y-165541285D01*
X62547853Y-166023054D01*
X62888553Y-166250702D01*
X62745642Y-166317817D01*
X62355355Y-166746076D01*
X62185524Y-167156110D01*
X62306845Y-167386000D01*
X63500000Y-167386000D01*
X63500000Y-167366000D01*
X63754000Y-167366000D01*
X63754000Y-167386000D01*
X64947155Y-167386000D01*
X65068476Y-167156110D01*
X64898645Y-166746076D01*
X64508358Y-166317817D01*
X64365447Y-166250702D01*
X64706147Y-166023054D01*
X65028054Y-165541285D01*
X65141093Y-164973000D01*
X65028054Y-164404715D01*
X64706147Y-163922946D01*
X64365447Y-163695298D01*
X64508358Y-163628183D01*
X64898645Y-163199924D01*
X65068476Y-162789890D01*
X64947155Y-162560000D01*
X63754000Y-162560000D01*
X63754000Y-162580000D01*
X63500000Y-162580000D01*
X63500000Y-162560000D01*
X62306845Y-162560000D01*
X62185524Y-162789890D01*
X62355355Y-163199924D01*
X62745642Y-163628183D01*
X62888553Y-163695298D01*
X62547853Y-163922946D01*
X62225946Y-164404715D01*
X62112907Y-164973000D01*
X61849000Y-164973000D01*
X61849000Y-159893000D01*
X62112907Y-159893000D01*
X62225946Y-160461285D01*
X62547853Y-160943054D01*
X62888553Y-161170702D01*
X62745642Y-161237817D01*
X62355355Y-161666076D01*
X62185524Y-162076110D01*
X62306845Y-162306000D01*
X63500000Y-162306000D01*
X63500000Y-162286000D01*
X63754000Y-162286000D01*
X63754000Y-162306000D01*
X64947155Y-162306000D01*
X65068476Y-162076110D01*
X64898645Y-161666076D01*
X64508358Y-161237817D01*
X64365447Y-161170702D01*
X64706147Y-160943054D01*
X65028054Y-160461285D01*
X65141093Y-159893000D01*
X65028054Y-159324715D01*
X64706147Y-158842946D01*
X64365447Y-158615298D01*
X64508358Y-158548183D01*
X64898645Y-158119924D01*
X65068476Y-157709890D01*
X64947155Y-157480000D01*
X63754000Y-157480000D01*
X63754000Y-157500000D01*
X63500000Y-157500000D01*
X63500000Y-157480000D01*
X62306845Y-157480000D01*
X62185524Y-157709890D01*
X62355355Y-158119924D01*
X62745642Y-158548183D01*
X62888553Y-158615298D01*
X62547853Y-158842946D01*
X62225946Y-159324715D01*
X62112907Y-159893000D01*
X61849000Y-159893000D01*
X61849000Y-154813000D01*
X62112907Y-154813000D01*
X62225946Y-155381285D01*
X62547853Y-155863054D01*
X62888553Y-156090702D01*
X62745642Y-156157817D01*
X62355355Y-156586076D01*
X62185524Y-156996110D01*
X62306845Y-157226000D01*
X63500000Y-157226000D01*
X63500000Y-157206000D01*
X63754000Y-157206000D01*
X63754000Y-157226000D01*
X64947155Y-157226000D01*
X65068476Y-156996110D01*
X64898645Y-156586076D01*
X64508358Y-156157817D01*
X64365447Y-156090702D01*
X64706147Y-155863054D01*
X65028054Y-155381285D01*
X65141093Y-154813000D01*
X65028054Y-154244715D01*
X64706147Y-153762946D01*
X64365447Y-153535298D01*
X64508358Y-153468183D01*
X64898645Y-153039924D01*
X65068476Y-152629890D01*
X64947155Y-152400000D01*
X63754000Y-152400000D01*
X63754000Y-152420000D01*
X63500000Y-152420000D01*
X63500000Y-152400000D01*
X62306845Y-152400000D01*
X62185524Y-152629890D01*
X62355355Y-153039924D01*
X62745642Y-153468183D01*
X62888553Y-153535298D01*
X62547853Y-153762946D01*
X62225946Y-154244715D01*
X62112907Y-154813000D01*
X61849000Y-154813000D01*
X61849000Y-149733000D01*
X62112907Y-149733000D01*
X62225946Y-150301285D01*
X62547853Y-150783054D01*
X62888553Y-151010702D01*
X62745642Y-151077817D01*
X62355355Y-151506076D01*
X62185524Y-151916110D01*
X62306845Y-152146000D01*
X63500000Y-152146000D01*
X63500000Y-152126000D01*
X63754000Y-152126000D01*
X63754000Y-152146000D01*
X64947155Y-152146000D01*
X65068476Y-151916110D01*
X64898645Y-151506076D01*
X64508358Y-151077817D01*
X64365447Y-151010702D01*
X64706147Y-150783054D01*
X65028054Y-150301285D01*
X65141093Y-149733000D01*
X65028054Y-149164715D01*
X64706147Y-148682946D01*
X64365447Y-148455298D01*
X64508358Y-148388183D01*
X64898645Y-147959924D01*
X65068476Y-147549890D01*
X64947155Y-147320000D01*
X63754000Y-147320000D01*
X63754000Y-147340000D01*
X63500000Y-147340000D01*
X63500000Y-147320000D01*
X62306845Y-147320000D01*
X62185524Y-147549890D01*
X62355355Y-147959924D01*
X62745642Y-148388183D01*
X62888553Y-148455298D01*
X62547853Y-148682946D01*
X62225946Y-149164715D01*
X62112907Y-149733000D01*
X61849000Y-149733000D01*
X61849000Y-144653000D01*
X62112907Y-144653000D01*
X62225946Y-145221285D01*
X62547853Y-145703054D01*
X62888553Y-145930702D01*
X62745642Y-145997817D01*
X62355355Y-146426076D01*
X62185524Y-146836110D01*
X62306845Y-147066000D01*
X63500000Y-147066000D01*
X63500000Y-147046000D01*
X63754000Y-147046000D01*
X63754000Y-147066000D01*
X64947155Y-147066000D01*
X65068476Y-146836110D01*
X64898645Y-146426076D01*
X64508358Y-145997817D01*
X64365447Y-145930702D01*
X64706147Y-145703054D01*
X65028054Y-145221285D01*
X65141093Y-144653000D01*
X65028054Y-144084715D01*
X64706147Y-143602946D01*
X64365447Y-143375298D01*
X64508358Y-143308183D01*
X64898645Y-142879924D01*
X65068476Y-142469890D01*
X64947155Y-142240000D01*
X63754000Y-142240000D01*
X63754000Y-142260000D01*
X63500000Y-142260000D01*
X63500000Y-142240000D01*
X62306845Y-142240000D01*
X62185524Y-142469890D01*
X62355355Y-142879924D01*
X62745642Y-143308183D01*
X62888553Y-143375298D01*
X62547853Y-143602946D01*
X62225946Y-144084715D01*
X62112907Y-144653000D01*
X61849000Y-144653000D01*
X61849000Y-139573000D01*
X62112907Y-139573000D01*
X62225946Y-140141285D01*
X62547853Y-140623054D01*
X62888553Y-140850702D01*
X62745642Y-140917817D01*
X62355355Y-141346076D01*
X62185524Y-141756110D01*
X62306845Y-141986000D01*
X63500000Y-141986000D01*
X63500000Y-141966000D01*
X63754000Y-141966000D01*
X63754000Y-141986000D01*
X64947155Y-141986000D01*
X65068476Y-141756110D01*
X64898645Y-141346076D01*
X64508358Y-140917817D01*
X64365447Y-140850702D01*
X64706147Y-140623054D01*
X65028054Y-140141285D01*
X65141093Y-139573000D01*
X65028054Y-139004715D01*
X64706147Y-138522946D01*
X64365447Y-138295298D01*
X64508358Y-138228183D01*
X64898645Y-137799924D01*
X65068476Y-137389890D01*
X64947155Y-137160000D01*
X63754000Y-137160000D01*
X63754000Y-137180000D01*
X63500000Y-137180000D01*
X63500000Y-137160000D01*
X62306845Y-137160000D01*
X62185524Y-137389890D01*
X62355355Y-137799924D01*
X62745642Y-138228183D01*
X62888553Y-138295298D01*
X62547853Y-138522946D01*
X62225946Y-139004715D01*
X62112907Y-139573000D01*
X61849000Y-139573000D01*
X61849000Y-134493000D01*
X62112907Y-134493000D01*
X62225946Y-135061285D01*
X62547853Y-135543054D01*
X62888553Y-135770702D01*
X62745642Y-135837817D01*
X62355355Y-136266076D01*
X62185524Y-136676110D01*
X62306845Y-136906000D01*
X63500000Y-136906000D01*
X63500000Y-136886000D01*
X63754000Y-136886000D01*
X63754000Y-136906000D01*
X64947155Y-136906000D01*
X65068476Y-136676110D01*
X64898645Y-136266076D01*
X64508358Y-135837817D01*
X64365447Y-135770702D01*
X64706147Y-135543054D01*
X65028054Y-135061285D01*
X65141093Y-134493000D01*
X65028054Y-133924715D01*
X64706147Y-133442946D01*
X64365447Y-133215298D01*
X64508358Y-133148183D01*
X64898645Y-132719924D01*
X65068476Y-132309890D01*
X64947155Y-132080000D01*
X63754000Y-132080000D01*
X63754000Y-132100000D01*
X63500000Y-132100000D01*
X63500000Y-132080000D01*
X62306845Y-132080000D01*
X62185524Y-132309890D01*
X62355355Y-132719924D01*
X62745642Y-133148183D01*
X62888553Y-133215298D01*
X62547853Y-133442946D01*
X62225946Y-133924715D01*
X62112907Y-134493000D01*
X61849000Y-134493000D01*
X61849000Y-131596110D01*
X62185524Y-131596110D01*
X62306845Y-131826000D01*
X63500000Y-131826000D01*
X63500000Y-130632181D01*
X63754000Y-130632181D01*
X63754000Y-131826000D01*
X64947155Y-131826000D01*
X65068476Y-131596110D01*
X64898645Y-131186076D01*
X64508358Y-130757817D01*
X63983892Y-130511514D01*
X63754000Y-130632181D01*
X63500000Y-130632181D01*
X63270108Y-130511514D01*
X62745642Y-130757817D01*
X62355355Y-131186076D01*
X62185524Y-131596110D01*
X61849000Y-131596110D01*
X61849000Y-129857500D01*
X74803044Y-129857500D01*
X88734942Y-148412255D01*
X88734942Y-148412255D01*
G37*
X88734942Y-148412255D02*
X88772611Y-148445759D01*
X88836500Y-148463000D01*
X90487500Y-148463000D01*
X90487500Y-156146500D01*
X88836500Y-156146500D01*
X88787090Y-156156506D01*
X88730830Y-156203053D01*
X76830532Y-174053500D01*
X61849000Y-174053500D01*
X61849000Y-169203000D01*
X62129560Y-169203000D01*
X62129560Y-170903000D01*
X62173838Y-171138317D01*
X62312910Y-171354441D01*
X62525110Y-171499431D01*
X62777000Y-171550440D01*
X64477000Y-171550440D01*
X64712317Y-171506162D01*
X64928441Y-171367090D01*
X65073431Y-171154890D01*
X65124440Y-170903000D01*
X65124440Y-169203000D01*
X65080162Y-168967683D01*
X64941090Y-168751559D01*
X64728890Y-168606569D01*
X64620893Y-168584699D01*
X64898645Y-168279924D01*
X65068476Y-167869890D01*
X64947155Y-167640000D01*
X63754000Y-167640000D01*
X63754000Y-167660000D01*
X63500000Y-167660000D01*
X63500000Y-167640000D01*
X62306845Y-167640000D01*
X62185524Y-167869890D01*
X62355355Y-168279924D01*
X62631501Y-168582937D01*
X62541683Y-168599838D01*
X62325559Y-168738910D01*
X62180569Y-168951110D01*
X62129560Y-169203000D01*
X61849000Y-169203000D01*
X61849000Y-164973000D01*
X62112907Y-164973000D01*
X62225946Y-165541285D01*
X62547853Y-166023054D01*
X62888553Y-166250702D01*
X62745642Y-166317817D01*
X62355355Y-166746076D01*
X62185524Y-167156110D01*
X62306845Y-167386000D01*
X63500000Y-167386000D01*
X63500000Y-167366000D01*
X63754000Y-167366000D01*
X63754000Y-167386000D01*
X64947155Y-167386000D01*
X65068476Y-167156110D01*
X64898645Y-166746076D01*
X64508358Y-166317817D01*
X64365447Y-166250702D01*
X64706147Y-166023054D01*
X65028054Y-165541285D01*
X65141093Y-164973000D01*
X65028054Y-164404715D01*
X64706147Y-163922946D01*
X64365447Y-163695298D01*
X64508358Y-163628183D01*
X64898645Y-163199924D01*
X65068476Y-162789890D01*
X64947155Y-162560000D01*
X63754000Y-162560000D01*
X63754000Y-162580000D01*
X63500000Y-162580000D01*
X63500000Y-162560000D01*
X62306845Y-162560000D01*
X62185524Y-162789890D01*
X62355355Y-163199924D01*
X62745642Y-163628183D01*
X62888553Y-163695298D01*
X62547853Y-163922946D01*
X62225946Y-164404715D01*
X62112907Y-164973000D01*
X61849000Y-164973000D01*
X61849000Y-159893000D01*
X62112907Y-159893000D01*
X62225946Y-160461285D01*
X62547853Y-160943054D01*
X62888553Y-161170702D01*
X62745642Y-161237817D01*
X62355355Y-161666076D01*
X62185524Y-162076110D01*
X62306845Y-162306000D01*
X63500000Y-162306000D01*
X63500000Y-162286000D01*
X63754000Y-162286000D01*
X63754000Y-162306000D01*
X64947155Y-162306000D01*
X65068476Y-162076110D01*
X64898645Y-161666076D01*
X64508358Y-161237817D01*
X64365447Y-161170702D01*
X64706147Y-160943054D01*
X65028054Y-160461285D01*
X65141093Y-159893000D01*
X65028054Y-159324715D01*
X64706147Y-158842946D01*
X64365447Y-158615298D01*
X64508358Y-158548183D01*
X64898645Y-158119924D01*
X65068476Y-157709890D01*
X64947155Y-157480000D01*
X63754000Y-157480000D01*
X63754000Y-157500000D01*
X63500000Y-157500000D01*
X63500000Y-157480000D01*
X62306845Y-157480000D01*
X62185524Y-157709890D01*
X62355355Y-158119924D01*
X62745642Y-158548183D01*
X62888553Y-158615298D01*
X62547853Y-158842946D01*
X62225946Y-159324715D01*
X62112907Y-159893000D01*
X61849000Y-159893000D01*
X61849000Y-154813000D01*
X62112907Y-154813000D01*
X62225946Y-155381285D01*
X62547853Y-155863054D01*
X62888553Y-156090702D01*
X62745642Y-156157817D01*
X62355355Y-156586076D01*
X62185524Y-156996110D01*
X62306845Y-157226000D01*
X63500000Y-157226000D01*
X63500000Y-157206000D01*
X63754000Y-157206000D01*
X63754000Y-157226000D01*
X64947155Y-157226000D01*
X65068476Y-156996110D01*
X64898645Y-156586076D01*
X64508358Y-156157817D01*
X64365447Y-156090702D01*
X64706147Y-155863054D01*
X65028054Y-155381285D01*
X65141093Y-154813000D01*
X65028054Y-154244715D01*
X64706147Y-153762946D01*
X64365447Y-153535298D01*
X64508358Y-153468183D01*
X64898645Y-153039924D01*
X65068476Y-152629890D01*
X64947155Y-152400000D01*
X63754000Y-152400000D01*
X63754000Y-152420000D01*
X63500000Y-152420000D01*
X63500000Y-152400000D01*
X62306845Y-152400000D01*
X62185524Y-152629890D01*
X62355355Y-153039924D01*
X62745642Y-153468183D01*
X62888553Y-153535298D01*
X62547853Y-153762946D01*
X62225946Y-154244715D01*
X62112907Y-154813000D01*
X61849000Y-154813000D01*
X61849000Y-149733000D01*
X62112907Y-149733000D01*
X62225946Y-150301285D01*
X62547853Y-150783054D01*
X62888553Y-151010702D01*
X62745642Y-151077817D01*
X62355355Y-151506076D01*
X62185524Y-151916110D01*
X62306845Y-152146000D01*
X63500000Y-152146000D01*
X63500000Y-152126000D01*
X63754000Y-152126000D01*
X63754000Y-152146000D01*
X64947155Y-152146000D01*
X65068476Y-151916110D01*
X64898645Y-151506076D01*
X64508358Y-151077817D01*
X64365447Y-151010702D01*
X64706147Y-150783054D01*
X65028054Y-150301285D01*
X65141093Y-149733000D01*
X65028054Y-149164715D01*
X64706147Y-148682946D01*
X64365447Y-148455298D01*
X64508358Y-148388183D01*
X64898645Y-147959924D01*
X65068476Y-147549890D01*
X64947155Y-147320000D01*
X63754000Y-147320000D01*
X63754000Y-147340000D01*
X63500000Y-147340000D01*
X63500000Y-147320000D01*
X62306845Y-147320000D01*
X62185524Y-147549890D01*
X62355355Y-147959924D01*
X62745642Y-148388183D01*
X62888553Y-148455298D01*
X62547853Y-148682946D01*
X62225946Y-149164715D01*
X62112907Y-149733000D01*
X61849000Y-149733000D01*
X61849000Y-144653000D01*
X62112907Y-144653000D01*
X62225946Y-145221285D01*
X62547853Y-145703054D01*
X62888553Y-145930702D01*
X62745642Y-145997817D01*
X62355355Y-146426076D01*
X62185524Y-146836110D01*
X62306845Y-147066000D01*
X63500000Y-147066000D01*
X63500000Y-147046000D01*
X63754000Y-147046000D01*
X63754000Y-147066000D01*
X64947155Y-147066000D01*
X65068476Y-146836110D01*
X64898645Y-146426076D01*
X64508358Y-145997817D01*
X64365447Y-145930702D01*
X64706147Y-145703054D01*
X65028054Y-145221285D01*
X65141093Y-144653000D01*
X65028054Y-144084715D01*
X64706147Y-143602946D01*
X64365447Y-143375298D01*
X64508358Y-143308183D01*
X64898645Y-142879924D01*
X65068476Y-142469890D01*
X64947155Y-142240000D01*
X63754000Y-142240000D01*
X63754000Y-142260000D01*
X63500000Y-142260000D01*
X63500000Y-142240000D01*
X62306845Y-142240000D01*
X62185524Y-142469890D01*
X62355355Y-142879924D01*
X62745642Y-143308183D01*
X62888553Y-143375298D01*
X62547853Y-143602946D01*
X62225946Y-144084715D01*
X62112907Y-144653000D01*
X61849000Y-144653000D01*
X61849000Y-139573000D01*
X62112907Y-139573000D01*
X62225946Y-140141285D01*
X62547853Y-140623054D01*
X62888553Y-140850702D01*
X62745642Y-140917817D01*
X62355355Y-141346076D01*
X62185524Y-141756110D01*
X62306845Y-141986000D01*
X63500000Y-141986000D01*
X63500000Y-141966000D01*
X63754000Y-141966000D01*
X63754000Y-141986000D01*
X64947155Y-141986000D01*
X65068476Y-141756110D01*
X64898645Y-141346076D01*
X64508358Y-140917817D01*
X64365447Y-140850702D01*
X64706147Y-140623054D01*
X65028054Y-140141285D01*
X65141093Y-139573000D01*
X65028054Y-139004715D01*
X64706147Y-138522946D01*
X64365447Y-138295298D01*
X64508358Y-138228183D01*
X64898645Y-137799924D01*
X65068476Y-137389890D01*
X64947155Y-137160000D01*
X63754000Y-137160000D01*
X63754000Y-137180000D01*
X63500000Y-137180000D01*
X63500000Y-137160000D01*
X62306845Y-137160000D01*
X62185524Y-137389890D01*
X62355355Y-137799924D01*
X62745642Y-138228183D01*
X62888553Y-138295298D01*
X62547853Y-138522946D01*
X62225946Y-139004715D01*
X62112907Y-139573000D01*
X61849000Y-139573000D01*
X61849000Y-134493000D01*
X62112907Y-134493000D01*
X62225946Y-135061285D01*
X62547853Y-135543054D01*
X62888553Y-135770702D01*
X62745642Y-135837817D01*
X62355355Y-136266076D01*
X62185524Y-136676110D01*
X62306845Y-136906000D01*
X63500000Y-136906000D01*
X63500000Y-136886000D01*
X63754000Y-136886000D01*
X63754000Y-136906000D01*
X64947155Y-136906000D01*
X65068476Y-136676110D01*
X64898645Y-136266076D01*
X64508358Y-135837817D01*
X64365447Y-135770702D01*
X64706147Y-135543054D01*
X65028054Y-135061285D01*
X65141093Y-134493000D01*
X65028054Y-133924715D01*
X64706147Y-133442946D01*
X64365447Y-133215298D01*
X64508358Y-133148183D01*
X64898645Y-132719924D01*
X65068476Y-132309890D01*
X64947155Y-132080000D01*
X63754000Y-132080000D01*
X63754000Y-132100000D01*
X63500000Y-132100000D01*
X63500000Y-132080000D01*
X62306845Y-132080000D01*
X62185524Y-132309890D01*
X62355355Y-132719924D01*
X62745642Y-133148183D01*
X62888553Y-133215298D01*
X62547853Y-133442946D01*
X62225946Y-133924715D01*
X62112907Y-134493000D01*
X61849000Y-134493000D01*
X61849000Y-131596110D01*
X62185524Y-131596110D01*
X62306845Y-131826000D01*
X63500000Y-131826000D01*
X63500000Y-130632181D01*
X63754000Y-130632181D01*
X63754000Y-131826000D01*
X64947155Y-131826000D01*
X65068476Y-131596110D01*
X64898645Y-131186076D01*
X64508358Y-130757817D01*
X63983892Y-130511514D01*
X63754000Y-130632181D01*
X63500000Y-130632181D01*
X63270108Y-130511514D01*
X62745642Y-130757817D01*
X62355355Y-131186076D01*
X62185524Y-131596110D01*
X61849000Y-131596110D01*
X61849000Y-129857500D01*
X74803044Y-129857500D01*
X88734942Y-148412255D01*
G36*
X83724000Y-132842000D02*
X83798979Y-133218943D01*
X84012500Y-133538500D01*
X84109060Y-133635060D01*
X84109060Y-134658000D01*
X84153338Y-134893317D01*
X84292410Y-135109441D01*
X84504610Y-135254431D01*
X84756500Y-135305440D01*
X84771500Y-135305440D01*
X84771500Y-136715000D01*
X84846479Y-137091943D01*
X85060000Y-137411500D01*
X88214560Y-140566060D01*
X88214560Y-141620500D01*
X88258838Y-141855817D01*
X88397910Y-142071941D01*
X88610110Y-142216931D01*
X88862000Y-142267940D01*
X89504138Y-142267940D01*
X90377878Y-143141680D01*
X90377838Y-143187167D01*
X90519883Y-143530943D01*
X90782673Y-143794192D01*
X91126201Y-143936838D01*
X91498167Y-143937162D01*
X91841943Y-143795117D01*
X92105192Y-143532327D01*
X92151557Y-143420669D01*
X92170883Y-143467443D01*
X92433673Y-143730692D01*
X92777201Y-143873338D01*
X93149167Y-143873662D01*
X93492943Y-143731617D01*
X93756192Y-143468827D01*
X93898838Y-143125299D01*
X93899162Y-142753333D01*
X93757117Y-142409557D01*
X93565500Y-142217605D01*
X93565500Y-142163440D01*
X93805500Y-142163440D01*
X94040817Y-142119162D01*
X94256941Y-141980090D01*
X94401931Y-141767890D01*
X94452940Y-141516000D01*
X94452940Y-141001750D01*
X95170500Y-141001750D01*
X95170500Y-141642310D01*
X95267173Y-141875699D01*
X95445802Y-142054327D01*
X95679191Y-142151000D01*
X96519750Y-142151000D01*
X96678500Y-141992250D01*
X96678500Y-140843000D01*
X96932500Y-140843000D01*
X96932500Y-141992250D01*
X97091250Y-142151000D01*
X97931809Y-142151000D01*
X98165198Y-142054327D01*
X98343827Y-141875699D01*
X98440500Y-141642310D01*
X98440500Y-141001750D01*
X98281750Y-140843000D01*
X96932500Y-140843000D01*
X96678500Y-140843000D01*
X95329250Y-140843000D01*
X95170500Y-141001750D01*
X94452940Y-141001750D01*
X94452940Y-139916000D01*
X94429174Y-139789690D01*
X95170500Y-139789690D01*
X95170500Y-140430250D01*
X95329250Y-140589000D01*
X96678500Y-140589000D01*
X96678500Y-139439750D01*
X96932500Y-139439750D01*
X96932500Y-140589000D01*
X98281750Y-140589000D01*
X98440500Y-140430250D01*
X98440500Y-139789690D01*
X98343827Y-139556301D01*
X98165198Y-139377673D01*
X97931809Y-139281000D01*
X97091250Y-139281000D01*
X96932500Y-139439750D01*
X96678500Y-139439750D01*
X96519750Y-139281000D01*
X95679191Y-139281000D01*
X95445802Y-139377673D01*
X95267173Y-139556301D01*
X95170500Y-139789690D01*
X94429174Y-139789690D01*
X94408662Y-139680683D01*
X94269590Y-139464559D01*
X94057390Y-139319569D01*
X93805500Y-139268560D01*
X93790500Y-139268560D01*
X93790500Y-138144250D01*
X105331000Y-138144250D01*
X105331000Y-138784810D01*
X105427673Y-139018199D01*
X105606302Y-139196827D01*
X105839691Y-139293500D01*
X106680250Y-139293500D01*
X106839000Y-139134750D01*
X106839000Y-137985500D01*
X107093000Y-137985500D01*
X107093000Y-139134750D01*
X107251750Y-139293500D01*
X108092309Y-139293500D01*
X108325698Y-139196827D01*
X108504327Y-139018199D01*
X108601000Y-138784810D01*
X108601000Y-138144250D01*
X108442250Y-137985500D01*
X107093000Y-137985500D01*
X106839000Y-137985500D01*
X105489750Y-137985500D01*
X105331000Y-138144250D01*
X93790500Y-138144250D01*
X93790500Y-136747500D01*
X93715521Y-136370557D01*
X93502000Y-136051000D01*
X92631625Y-135180625D01*
X92678000Y-135134250D01*
X92678000Y-133985000D01*
X92932000Y-133985000D01*
X92932000Y-135134250D01*
X93090750Y-135293000D01*
X93931309Y-135293000D01*
X93946397Y-135286750D01*
X105267500Y-135286750D01*
X105267500Y-135927310D01*
X105364173Y-136160699D01*
X105542802Y-136339327D01*
X105776191Y-136436000D01*
X105809513Y-136436000D01*
X105606302Y-136520173D01*
X105427673Y-136698801D01*
X105331000Y-136932190D01*
X105331000Y-137572750D01*
X105489750Y-137731500D01*
X106839000Y-137731500D01*
X106839000Y-136582250D01*
X106680250Y-136423500D01*
X106629250Y-136423500D01*
X106775500Y-136277250D01*
X106775500Y-135128000D01*
X107029500Y-135128000D01*
X107029500Y-136277250D01*
X107188250Y-136436000D01*
X107239250Y-136436000D01*
X107093000Y-136582250D01*
X107093000Y-137731500D01*
X108442250Y-137731500D01*
X108601000Y-137572750D01*
X108601000Y-136932190D01*
X108504327Y-136698801D01*
X108325698Y-136520173D01*
X108092309Y-136423500D01*
X108058987Y-136423500D01*
X108262198Y-136339327D01*
X108440827Y-136160699D01*
X108537500Y-135927310D01*
X108537500Y-135286750D01*
X108378750Y-135128000D01*
X107029500Y-135128000D01*
X106775500Y-135128000D01*
X105426250Y-135128000D01*
X105267500Y-135286750D01*
X93946397Y-135286750D01*
X94164698Y-135196327D01*
X94343327Y-135017699D01*
X94440000Y-134784310D01*
X94440000Y-134143750D01*
X94370940Y-134074690D01*
X105267500Y-134074690D01*
X105267500Y-134715250D01*
X105426250Y-134874000D01*
X106775500Y-134874000D01*
X106775500Y-133724750D01*
X107029500Y-133724750D01*
X107029500Y-134874000D01*
X108378750Y-134874000D01*
X108537500Y-134715250D01*
X108537500Y-134074690D01*
X108440827Y-133841301D01*
X108262198Y-133662673D01*
X108028809Y-133566000D01*
X107188250Y-133566000D01*
X107029500Y-133724750D01*
X106775500Y-133724750D01*
X106616750Y-133566000D01*
X105776191Y-133566000D01*
X105542802Y-133662673D01*
X105364173Y-133841301D01*
X105267500Y-134074690D01*
X94370940Y-134074690D01*
X94281250Y-133985000D01*
X92932000Y-133985000D01*
X92678000Y-133985000D01*
X91328750Y-133985000D01*
X91300568Y-134013182D01*
X90995500Y-133952500D01*
X90452440Y-133952500D01*
X90452440Y-133058000D01*
X90408162Y-132822683D01*
X90329500Y-132700439D01*
X90329500Y-132651500D01*
X91313474Y-132651500D01*
X91266673Y-132698301D01*
X91170000Y-132931690D01*
X91170000Y-133572250D01*
X91328750Y-133731000D01*
X92678000Y-133731000D01*
X92678000Y-133711000D01*
X92932000Y-133711000D01*
X92932000Y-133731000D01*
X94281250Y-133731000D01*
X94440000Y-133572250D01*
X94440000Y-132931690D01*
X94343327Y-132698301D01*
X94296526Y-132651500D01*
X108716000Y-132651500D01*
X109664235Y-133599735D01*
X109451059Y-133736910D01*
X109306069Y-133949110D01*
X109255060Y-134201000D01*
X109255060Y-135801000D01*
X109299338Y-136036317D01*
X109438410Y-136252441D01*
X109650610Y-136397431D01*
X109837402Y-136435257D01*
X109730683Y-136455338D01*
X109514559Y-136594410D01*
X109369569Y-136806610D01*
X109318560Y-137058500D01*
X109318560Y-138658500D01*
X109362838Y-138893817D01*
X109501910Y-139109941D01*
X109714110Y-139254931D01*
X109966000Y-139305940D01*
X110013000Y-139305940D01*
X110013000Y-143119203D01*
X109951569Y-143209110D01*
X109900560Y-143461000D01*
X109900560Y-144167638D01*
X108651198Y-145417000D01*
X104902000Y-145417000D01*
X104611161Y-145474852D01*
X104364599Y-145639599D01*
X103348599Y-146655599D01*
X103183852Y-146902161D01*
X103126000Y-147193000D01*
X103126000Y-149333453D01*
X102849057Y-149447883D01*
X102585808Y-149710673D01*
X102443162Y-150054201D01*
X102442838Y-150426167D01*
X102576383Y-150749371D01*
X102443162Y-151070201D01*
X102442838Y-151442167D01*
X102584883Y-151785943D01*
X102847673Y-152049192D01*
X103191201Y-152191838D01*
X103238077Y-152191879D01*
X103581560Y-152535362D01*
X103581560Y-153178000D01*
X103625838Y-153413317D01*
X103764910Y-153629441D01*
X103977110Y-153774431D01*
X104229000Y-153825440D01*
X105829000Y-153825440D01*
X106064317Y-153781162D01*
X106280441Y-153642090D01*
X106348317Y-153542750D01*
X106515000Y-153542750D01*
X106515000Y-154383309D01*
X106611673Y-154616698D01*
X106790301Y-154795327D01*
X107023690Y-154892000D01*
X107664250Y-154892000D01*
X107823000Y-154733250D01*
X107823000Y-153384000D01*
X108077000Y-153384000D01*
X108077000Y-154733250D01*
X108235750Y-154892000D01*
X108876310Y-154892000D01*
X109109699Y-154795327D01*
X109288327Y-154616698D01*
X109385000Y-154383309D01*
X109385000Y-153542750D01*
X109563000Y-153542750D01*
X109563000Y-154383309D01*
X109659673Y-154616698D01*
X109838301Y-154795327D01*
X110071690Y-154892000D01*
X110712250Y-154892000D01*
X110871000Y-154733250D01*
X110871000Y-153384000D01*
X111125000Y-153384000D01*
X111125000Y-154733250D01*
X111283750Y-154892000D01*
X111924310Y-154892000D01*
X112157699Y-154795327D01*
X112336327Y-154616698D01*
X112433000Y-154383309D01*
X112433000Y-153542750D01*
X112274250Y-153384000D01*
X111125000Y-153384000D01*
X110871000Y-153384000D01*
X109721750Y-153384000D01*
X109563000Y-153542750D01*
X109385000Y-153542750D01*
X109226250Y-153384000D01*
X108077000Y-153384000D01*
X107823000Y-153384000D01*
X106673750Y-153384000D01*
X106515000Y-153542750D01*
X106348317Y-153542750D01*
X106425431Y-153429890D01*
X106476440Y-153178000D01*
X106476440Y-152123560D01*
X106547308Y-152052692D01*
X106515000Y-152130691D01*
X106515000Y-152971250D01*
X106673750Y-153130000D01*
X107823000Y-153130000D01*
X107823000Y-151780750D01*
X108077000Y-151780750D01*
X108077000Y-153130000D01*
X109226250Y-153130000D01*
X109385000Y-152971250D01*
X109385000Y-152130691D01*
X109563000Y-152130691D01*
X109563000Y-152971250D01*
X109721750Y-153130000D01*
X110871000Y-153130000D01*
X110871000Y-151780750D01*
X111125000Y-151780750D01*
X111125000Y-153130000D01*
X112274250Y-153130000D01*
X112433000Y-152971250D01*
X112433000Y-152130691D01*
X112336327Y-151897302D01*
X112157699Y-151718673D01*
X111924310Y-151622000D01*
X111283750Y-151622000D01*
X111125000Y-151780750D01*
X110871000Y-151780750D01*
X110712250Y-151622000D01*
X110071690Y-151622000D01*
X109838301Y-151718673D01*
X109659673Y-151897302D01*
X109563000Y-152130691D01*
X109385000Y-152130691D01*
X109288327Y-151897302D01*
X109109699Y-151718673D01*
X108876310Y-151622000D01*
X108235750Y-151622000D01*
X108077000Y-151780750D01*
X107823000Y-151780750D01*
X107664250Y-151622000D01*
X107023690Y-151622000D01*
X106945692Y-151654308D01*
X107695560Y-150904440D01*
X108750000Y-150904440D01*
X108985317Y-150860162D01*
X109201441Y-150721090D01*
X109346431Y-150508890D01*
X109397440Y-150257000D01*
X109397440Y-150242000D01*
X109550560Y-150242000D01*
X109550560Y-150257000D01*
X109594838Y-150492317D01*
X109733910Y-150708441D01*
X109946110Y-150853431D01*
X110198000Y-150904440D01*
X111798000Y-150904440D01*
X112033317Y-150860162D01*
X112249441Y-150721090D01*
X112394431Y-150508890D01*
X112445440Y-150257000D01*
X112445440Y-148257000D01*
X112401162Y-148021683D01*
X112262090Y-147805559D01*
X112049890Y-147660569D01*
X111983000Y-147647023D01*
X111983000Y-147202797D01*
X112044431Y-147112890D01*
X112095440Y-146861000D01*
X112095440Y-145661000D01*
X112051162Y-145425683D01*
X111912090Y-145209559D01*
X111842289Y-145161866D01*
X111899441Y-145125090D01*
X112044431Y-144912890D01*
X112095440Y-144661000D01*
X112095440Y-143461000D01*
X112051162Y-143225683D01*
X111983000Y-143119756D01*
X111983000Y-139302741D01*
X112201317Y-139261662D01*
X112417441Y-139122590D01*
X112562431Y-138910390D01*
X112613440Y-138658500D01*
X112613440Y-137058500D01*
X112569162Y-136823183D01*
X112430090Y-136607059D01*
X112217890Y-136462069D01*
X112031098Y-136424243D01*
X112137817Y-136404162D01*
X112353941Y-136265090D01*
X112498931Y-136052890D01*
X112549940Y-135801000D01*
X112549940Y-134201000D01*
X112505662Y-133965683D01*
X112366590Y-133749559D01*
X112154390Y-133604569D01*
X111902500Y-133553560D01*
X111887500Y-133553560D01*
X111887500Y-133445000D01*
X111812521Y-133068057D01*
X111599000Y-132748500D01*
X111502000Y-132651500D01*
X113315000Y-132651500D01*
X113315000Y-163068000D01*
X104501545Y-163068000D01*
X97980500Y-157926407D01*
X97980500Y-156463750D01*
X103594000Y-156463750D01*
X103594000Y-157304309D01*
X103690673Y-157537698D01*
X103869301Y-157716327D01*
X104102690Y-157813000D01*
X104743250Y-157813000D01*
X104902000Y-157654250D01*
X104902000Y-156305000D01*
X105156000Y-156305000D01*
X105156000Y-157654250D01*
X105314750Y-157813000D01*
X105955310Y-157813000D01*
X106188699Y-157716327D01*
X106367327Y-157537698D01*
X106464000Y-157304309D01*
X106464000Y-156463750D01*
X106305250Y-156305000D01*
X105156000Y-156305000D01*
X104902000Y-156305000D01*
X103752750Y-156305000D01*
X103594000Y-156463750D01*
X97980500Y-156463750D01*
X97980500Y-155051691D01*
X103594000Y-155051691D01*
X103594000Y-155892250D01*
X103752750Y-156051000D01*
X104902000Y-156051000D01*
X104902000Y-154701750D01*
X105156000Y-154701750D01*
X105156000Y-156051000D01*
X106305250Y-156051000D01*
X106464000Y-155892250D01*
X106464000Y-155051691D01*
X106367327Y-154818302D01*
X106188699Y-154639673D01*
X105955310Y-154543000D01*
X105314750Y-154543000D01*
X105156000Y-154701750D01*
X104902000Y-154701750D01*
X104743250Y-154543000D01*
X104102690Y-154543000D01*
X103869301Y-154639673D01*
X103690673Y-154818302D01*
X103594000Y-155051691D01*
X97980500Y-155051691D01*
X97980500Y-148653500D01*
X97970494Y-148604090D01*
X97942053Y-148562465D01*
X97899659Y-148535185D01*
X97853500Y-148526500D01*
X91376500Y-148526500D01*
X91376500Y-147193000D01*
X91366494Y-147143590D01*
X91348419Y-147113351D01*
X81830734Y-135293000D01*
X81883502Y-135293000D01*
X81883502Y-135134252D01*
X82042250Y-135293000D01*
X82882809Y-135293000D01*
X83116198Y-135196327D01*
X83294827Y-135017699D01*
X83391500Y-134784310D01*
X83391500Y-134143750D01*
X83232750Y-133985000D01*
X81883500Y-133985000D01*
X81883500Y-134005000D01*
X81629500Y-134005000D01*
X81629500Y-133985000D01*
X81609500Y-133985000D01*
X81609500Y-133731000D01*
X81629500Y-133731000D01*
X81629500Y-133711000D01*
X81883500Y-133711000D01*
X81883500Y-133731000D01*
X83232750Y-133731000D01*
X83391500Y-133572250D01*
X83391500Y-132931690D01*
X83294827Y-132698301D01*
X83248026Y-132651500D01*
X83724000Y-132651500D01*
X83724000Y-132842000D01*
X83724000Y-132842000D01*
G37*
X83724000Y-132842000D02*
X83798979Y-133218943D01*
X84012500Y-133538500D01*
X84109060Y-133635060D01*
X84109060Y-134658000D01*
X84153338Y-134893317D01*
X84292410Y-135109441D01*
X84504610Y-135254431D01*
X84756500Y-135305440D01*
X84771500Y-135305440D01*
X84771500Y-136715000D01*
X84846479Y-137091943D01*
X85060000Y-137411500D01*
X88214560Y-140566060D01*
X88214560Y-141620500D01*
X88258838Y-141855817D01*
X88397910Y-142071941D01*
X88610110Y-142216931D01*
X88862000Y-142267940D01*
X89504138Y-142267940D01*
X90377878Y-143141680D01*
X90377838Y-143187167D01*
X90519883Y-143530943D01*
X90782673Y-143794192D01*
X91126201Y-143936838D01*
X91498167Y-143937162D01*
X91841943Y-143795117D01*
X92105192Y-143532327D01*
X92151557Y-143420669D01*
X92170883Y-143467443D01*
X92433673Y-143730692D01*
X92777201Y-143873338D01*
X93149167Y-143873662D01*
X93492943Y-143731617D01*
X93756192Y-143468827D01*
X93898838Y-143125299D01*
X93899162Y-142753333D01*
X93757117Y-142409557D01*
X93565500Y-142217605D01*
X93565500Y-142163440D01*
X93805500Y-142163440D01*
X94040817Y-142119162D01*
X94256941Y-141980090D01*
X94401931Y-141767890D01*
X94452940Y-141516000D01*
X94452940Y-141001750D01*
X95170500Y-141001750D01*
X95170500Y-141642310D01*
X95267173Y-141875699D01*
X95445802Y-142054327D01*
X95679191Y-142151000D01*
X96519750Y-142151000D01*
X96678500Y-141992250D01*
X96678500Y-140843000D01*
X96932500Y-140843000D01*
X96932500Y-141992250D01*
X97091250Y-142151000D01*
X97931809Y-142151000D01*
X98165198Y-142054327D01*
X98343827Y-141875699D01*
X98440500Y-141642310D01*
X98440500Y-141001750D01*
X98281750Y-140843000D01*
X96932500Y-140843000D01*
X96678500Y-140843000D01*
X95329250Y-140843000D01*
X95170500Y-141001750D01*
X94452940Y-141001750D01*
X94452940Y-139916000D01*
X94429174Y-139789690D01*
X95170500Y-139789690D01*
X95170500Y-140430250D01*
X95329250Y-140589000D01*
X96678500Y-140589000D01*
X96678500Y-139439750D01*
X96932500Y-139439750D01*
X96932500Y-140589000D01*
X98281750Y-140589000D01*
X98440500Y-140430250D01*
X98440500Y-139789690D01*
X98343827Y-139556301D01*
X98165198Y-139377673D01*
X97931809Y-139281000D01*
X97091250Y-139281000D01*
X96932500Y-139439750D01*
X96678500Y-139439750D01*
X96519750Y-139281000D01*
X95679191Y-139281000D01*
X95445802Y-139377673D01*
X95267173Y-139556301D01*
X95170500Y-139789690D01*
X94429174Y-139789690D01*
X94408662Y-139680683D01*
X94269590Y-139464559D01*
X94057390Y-139319569D01*
X93805500Y-139268560D01*
X93790500Y-139268560D01*
X93790500Y-138144250D01*
X105331000Y-138144250D01*
X105331000Y-138784810D01*
X105427673Y-139018199D01*
X105606302Y-139196827D01*
X105839691Y-139293500D01*
X106680250Y-139293500D01*
X106839000Y-139134750D01*
X106839000Y-137985500D01*
X107093000Y-137985500D01*
X107093000Y-139134750D01*
X107251750Y-139293500D01*
X108092309Y-139293500D01*
X108325698Y-139196827D01*
X108504327Y-139018199D01*
X108601000Y-138784810D01*
X108601000Y-138144250D01*
X108442250Y-137985500D01*
X107093000Y-137985500D01*
X106839000Y-137985500D01*
X105489750Y-137985500D01*
X105331000Y-138144250D01*
X93790500Y-138144250D01*
X93790500Y-136747500D01*
X93715521Y-136370557D01*
X93502000Y-136051000D01*
X92631625Y-135180625D01*
X92678000Y-135134250D01*
X92678000Y-133985000D01*
X92932000Y-133985000D01*
X92932000Y-135134250D01*
X93090750Y-135293000D01*
X93931309Y-135293000D01*
X93946397Y-135286750D01*
X105267500Y-135286750D01*
X105267500Y-135927310D01*
X105364173Y-136160699D01*
X105542802Y-136339327D01*
X105776191Y-136436000D01*
X105809513Y-136436000D01*
X105606302Y-136520173D01*
X105427673Y-136698801D01*
X105331000Y-136932190D01*
X105331000Y-137572750D01*
X105489750Y-137731500D01*
X106839000Y-137731500D01*
X106839000Y-136582250D01*
X106680250Y-136423500D01*
X106629250Y-136423500D01*
X106775500Y-136277250D01*
X106775500Y-135128000D01*
X107029500Y-135128000D01*
X107029500Y-136277250D01*
X107188250Y-136436000D01*
X107239250Y-136436000D01*
X107093000Y-136582250D01*
X107093000Y-137731500D01*
X108442250Y-137731500D01*
X108601000Y-137572750D01*
X108601000Y-136932190D01*
X108504327Y-136698801D01*
X108325698Y-136520173D01*
X108092309Y-136423500D01*
X108058987Y-136423500D01*
X108262198Y-136339327D01*
X108440827Y-136160699D01*
X108537500Y-135927310D01*
X108537500Y-135286750D01*
X108378750Y-135128000D01*
X107029500Y-135128000D01*
X106775500Y-135128000D01*
X105426250Y-135128000D01*
X105267500Y-135286750D01*
X93946397Y-135286750D01*
X94164698Y-135196327D01*
X94343327Y-135017699D01*
X94440000Y-134784310D01*
X94440000Y-134143750D01*
X94370940Y-134074690D01*
X105267500Y-134074690D01*
X105267500Y-134715250D01*
X105426250Y-134874000D01*
X106775500Y-134874000D01*
X106775500Y-133724750D01*
X107029500Y-133724750D01*
X107029500Y-134874000D01*
X108378750Y-134874000D01*
X108537500Y-134715250D01*
X108537500Y-134074690D01*
X108440827Y-133841301D01*
X108262198Y-133662673D01*
X108028809Y-133566000D01*
X107188250Y-133566000D01*
X107029500Y-133724750D01*
X106775500Y-133724750D01*
X106616750Y-133566000D01*
X105776191Y-133566000D01*
X105542802Y-133662673D01*
X105364173Y-133841301D01*
X105267500Y-134074690D01*
X94370940Y-134074690D01*
X94281250Y-133985000D01*
X92932000Y-133985000D01*
X92678000Y-133985000D01*
X91328750Y-133985000D01*
X91300568Y-134013182D01*
X90995500Y-133952500D01*
X90452440Y-133952500D01*
X90452440Y-133058000D01*
X90408162Y-132822683D01*
X90329500Y-132700439D01*
X90329500Y-132651500D01*
X91313474Y-132651500D01*
X91266673Y-132698301D01*
X91170000Y-132931690D01*
X91170000Y-133572250D01*
X91328750Y-133731000D01*
X92678000Y-133731000D01*
X92678000Y-133711000D01*
X92932000Y-133711000D01*
X92932000Y-133731000D01*
X94281250Y-133731000D01*
X94440000Y-133572250D01*
X94440000Y-132931690D01*
X94343327Y-132698301D01*
X94296526Y-132651500D01*
X108716000Y-132651500D01*
X109664235Y-133599735D01*
X109451059Y-133736910D01*
X109306069Y-133949110D01*
X109255060Y-134201000D01*
X109255060Y-135801000D01*
X109299338Y-136036317D01*
X109438410Y-136252441D01*
X109650610Y-136397431D01*
X109837402Y-136435257D01*
X109730683Y-136455338D01*
X109514559Y-136594410D01*
X109369569Y-136806610D01*
X109318560Y-137058500D01*
X109318560Y-138658500D01*
X109362838Y-138893817D01*
X109501910Y-139109941D01*
X109714110Y-139254931D01*
X109966000Y-139305940D01*
X110013000Y-139305940D01*
X110013000Y-143119203D01*
X109951569Y-143209110D01*
X109900560Y-143461000D01*
X109900560Y-144167638D01*
X108651198Y-145417000D01*
X104902000Y-145417000D01*
X104611161Y-145474852D01*
X104364599Y-145639599D01*
X103348599Y-146655599D01*
X103183852Y-146902161D01*
X103126000Y-147193000D01*
X103126000Y-149333453D01*
X102849057Y-149447883D01*
X102585808Y-149710673D01*
X102443162Y-150054201D01*
X102442838Y-150426167D01*
X102576383Y-150749371D01*
X102443162Y-151070201D01*
X102442838Y-151442167D01*
X102584883Y-151785943D01*
X102847673Y-152049192D01*
X103191201Y-152191838D01*
X103238077Y-152191879D01*
X103581560Y-152535362D01*
X103581560Y-153178000D01*
X103625838Y-153413317D01*
X103764910Y-153629441D01*
X103977110Y-153774431D01*
X104229000Y-153825440D01*
X105829000Y-153825440D01*
X106064317Y-153781162D01*
X106280441Y-153642090D01*
X106348317Y-153542750D01*
X106515000Y-153542750D01*
X106515000Y-154383309D01*
X106611673Y-154616698D01*
X106790301Y-154795327D01*
X107023690Y-154892000D01*
X107664250Y-154892000D01*
X107823000Y-154733250D01*
X107823000Y-153384000D01*
X108077000Y-153384000D01*
X108077000Y-154733250D01*
X108235750Y-154892000D01*
X108876310Y-154892000D01*
X109109699Y-154795327D01*
X109288327Y-154616698D01*
X109385000Y-154383309D01*
X109385000Y-153542750D01*
X109563000Y-153542750D01*
X109563000Y-154383309D01*
X109659673Y-154616698D01*
X109838301Y-154795327D01*
X110071690Y-154892000D01*
X110712250Y-154892000D01*
X110871000Y-154733250D01*
X110871000Y-153384000D01*
X111125000Y-153384000D01*
X111125000Y-154733250D01*
X111283750Y-154892000D01*
X111924310Y-154892000D01*
X112157699Y-154795327D01*
X112336327Y-154616698D01*
X112433000Y-154383309D01*
X112433000Y-153542750D01*
X112274250Y-153384000D01*
X111125000Y-153384000D01*
X110871000Y-153384000D01*
X109721750Y-153384000D01*
X109563000Y-153542750D01*
X109385000Y-153542750D01*
X109226250Y-153384000D01*
X108077000Y-153384000D01*
X107823000Y-153384000D01*
X106673750Y-153384000D01*
X106515000Y-153542750D01*
X106348317Y-153542750D01*
X106425431Y-153429890D01*
X106476440Y-153178000D01*
X106476440Y-152123560D01*
X106547308Y-152052692D01*
X106515000Y-152130691D01*
X106515000Y-152971250D01*
X106673750Y-153130000D01*
X107823000Y-153130000D01*
X107823000Y-151780750D01*
X108077000Y-151780750D01*
X108077000Y-153130000D01*
X109226250Y-153130000D01*
X109385000Y-152971250D01*
X109385000Y-152130691D01*
X109563000Y-152130691D01*
X109563000Y-152971250D01*
X109721750Y-153130000D01*
X110871000Y-153130000D01*
X110871000Y-151780750D01*
X111125000Y-151780750D01*
X111125000Y-153130000D01*
X112274250Y-153130000D01*
X112433000Y-152971250D01*
X112433000Y-152130691D01*
X112336327Y-151897302D01*
X112157699Y-151718673D01*
X111924310Y-151622000D01*
X111283750Y-151622000D01*
X111125000Y-151780750D01*
X110871000Y-151780750D01*
X110712250Y-151622000D01*
X110071690Y-151622000D01*
X109838301Y-151718673D01*
X109659673Y-151897302D01*
X109563000Y-152130691D01*
X109385000Y-152130691D01*
X109288327Y-151897302D01*
X109109699Y-151718673D01*
X108876310Y-151622000D01*
X108235750Y-151622000D01*
X108077000Y-151780750D01*
X107823000Y-151780750D01*
X107664250Y-151622000D01*
X107023690Y-151622000D01*
X106945692Y-151654308D01*
X107695560Y-150904440D01*
X108750000Y-150904440D01*
X108985317Y-150860162D01*
X109201441Y-150721090D01*
X109346431Y-150508890D01*
X109397440Y-150257000D01*
X109397440Y-150242000D01*
X109550560Y-150242000D01*
X109550560Y-150257000D01*
X109594838Y-150492317D01*
X109733910Y-150708441D01*
X109946110Y-150853431D01*
X110198000Y-150904440D01*
X111798000Y-150904440D01*
X112033317Y-150860162D01*
X112249441Y-150721090D01*
X112394431Y-150508890D01*
X112445440Y-150257000D01*
X112445440Y-148257000D01*
X112401162Y-148021683D01*
X112262090Y-147805559D01*
X112049890Y-147660569D01*
X111983000Y-147647023D01*
X111983000Y-147202797D01*
X112044431Y-147112890D01*
X112095440Y-146861000D01*
X112095440Y-145661000D01*
X112051162Y-145425683D01*
X111912090Y-145209559D01*
X111842289Y-145161866D01*
X111899441Y-145125090D01*
X112044431Y-144912890D01*
X112095440Y-144661000D01*
X112095440Y-143461000D01*
X112051162Y-143225683D01*
X111983000Y-143119756D01*
X111983000Y-139302741D01*
X112201317Y-139261662D01*
X112417441Y-139122590D01*
X112562431Y-138910390D01*
X112613440Y-138658500D01*
X112613440Y-137058500D01*
X112569162Y-136823183D01*
X112430090Y-136607059D01*
X112217890Y-136462069D01*
X112031098Y-136424243D01*
X112137817Y-136404162D01*
X112353941Y-136265090D01*
X112498931Y-136052890D01*
X112549940Y-135801000D01*
X112549940Y-134201000D01*
X112505662Y-133965683D01*
X112366590Y-133749559D01*
X112154390Y-133604569D01*
X111902500Y-133553560D01*
X111887500Y-133553560D01*
X111887500Y-133445000D01*
X111812521Y-133068057D01*
X111599000Y-132748500D01*
X111502000Y-132651500D01*
X113315000Y-132651500D01*
X113315000Y-163068000D01*
X104501545Y-163068000D01*
X97980500Y-157926407D01*
X97980500Y-156463750D01*
X103594000Y-156463750D01*
X103594000Y-157304309D01*
X103690673Y-157537698D01*
X103869301Y-157716327D01*
X104102690Y-157813000D01*
X104743250Y-157813000D01*
X104902000Y-157654250D01*
X104902000Y-156305000D01*
X105156000Y-156305000D01*
X105156000Y-157654250D01*
X105314750Y-157813000D01*
X105955310Y-157813000D01*
X106188699Y-157716327D01*
X106367327Y-157537698D01*
X106464000Y-157304309D01*
X106464000Y-156463750D01*
X106305250Y-156305000D01*
X105156000Y-156305000D01*
X104902000Y-156305000D01*
X103752750Y-156305000D01*
X103594000Y-156463750D01*
X97980500Y-156463750D01*
X97980500Y-155051691D01*
X103594000Y-155051691D01*
X103594000Y-155892250D01*
X103752750Y-156051000D01*
X104902000Y-156051000D01*
X104902000Y-154701750D01*
X105156000Y-154701750D01*
X105156000Y-156051000D01*
X106305250Y-156051000D01*
X106464000Y-155892250D01*
X106464000Y-155051691D01*
X106367327Y-154818302D01*
X106188699Y-154639673D01*
X105955310Y-154543000D01*
X105314750Y-154543000D01*
X105156000Y-154701750D01*
X104902000Y-154701750D01*
X104743250Y-154543000D01*
X104102690Y-154543000D01*
X103869301Y-154639673D01*
X103690673Y-154818302D01*
X103594000Y-155051691D01*
X97980500Y-155051691D01*
X97980500Y-148653500D01*
X97970494Y-148604090D01*
X97942053Y-148562465D01*
X97899659Y-148535185D01*
X97853500Y-148526500D01*
X91376500Y-148526500D01*
X91376500Y-147193000D01*
X91366494Y-147143590D01*
X91348419Y-147113351D01*
X81830734Y-135293000D01*
X81883502Y-135293000D01*
X81883502Y-135134252D01*
X82042250Y-135293000D01*
X82882809Y-135293000D01*
X83116198Y-135196327D01*
X83294827Y-135017699D01*
X83391500Y-134784310D01*
X83391500Y-134143750D01*
X83232750Y-133985000D01*
X81883500Y-133985000D01*
X81883500Y-134005000D01*
X81629500Y-134005000D01*
X81629500Y-133985000D01*
X81609500Y-133985000D01*
X81609500Y-133731000D01*
X81629500Y-133731000D01*
X81629500Y-133711000D01*
X81883500Y-133711000D01*
X81883500Y-133731000D01*
X83232750Y-133731000D01*
X83391500Y-133572250D01*
X83391500Y-132931690D01*
X83294827Y-132698301D01*
X83248026Y-132651500D01*
X83724000Y-132651500D01*
X83724000Y-132842000D01*
G36*
X109900560Y-146861000D02*
X109944838Y-147096317D01*
X110013000Y-147202244D01*
X110013000Y-147644370D01*
X109962683Y-147653838D01*
X109746559Y-147792910D01*
X109601569Y-148005110D01*
X109550560Y-148257000D01*
X109550560Y-148272000D01*
X109397440Y-148272000D01*
X109397440Y-148257000D01*
X109353162Y-148021683D01*
X109214090Y-147805559D01*
X109001890Y-147660569D01*
X108750000Y-147609560D01*
X107150000Y-147609560D01*
X106914683Y-147653838D01*
X106698559Y-147792910D01*
X106553569Y-148005110D01*
X106502560Y-148257000D01*
X106502560Y-149311440D01*
X105283440Y-150530560D01*
X104270168Y-150530560D01*
X104312838Y-150427799D01*
X104312879Y-150380923D01*
X104423401Y-150270401D01*
X104588147Y-150023840D01*
X104588148Y-150023839D01*
X104646000Y-149733000D01*
X104646000Y-147507802D01*
X105216802Y-146937000D01*
X108966000Y-146937000D01*
X109256839Y-146879148D01*
X109503401Y-146714401D01*
X109900560Y-146317242D01*
X109900560Y-146861000D01*
X109900560Y-146861000D01*
G37*
X109900560Y-146861000D02*
X109944838Y-147096317D01*
X110013000Y-147202244D01*
X110013000Y-147644370D01*
X109962683Y-147653838D01*
X109746559Y-147792910D01*
X109601569Y-148005110D01*
X109550560Y-148257000D01*
X109550560Y-148272000D01*
X109397440Y-148272000D01*
X109397440Y-148257000D01*
X109353162Y-148021683D01*
X109214090Y-147805559D01*
X109001890Y-147660569D01*
X108750000Y-147609560D01*
X107150000Y-147609560D01*
X106914683Y-147653838D01*
X106698559Y-147792910D01*
X106553569Y-148005110D01*
X106502560Y-148257000D01*
X106502560Y-149311440D01*
X105283440Y-150530560D01*
X104270168Y-150530560D01*
X104312838Y-150427799D01*
X104312879Y-150380923D01*
X104423401Y-150270401D01*
X104588147Y-150023840D01*
X104588148Y-150023839D01*
X104646000Y-149733000D01*
X104646000Y-147507802D01*
X105216802Y-146937000D01*
X108966000Y-146937000D01*
X109256839Y-146879148D01*
X109503401Y-146714401D01*
X109900560Y-146317242D01*
X109900560Y-146861000D01*
G36*
X87340910Y-135109441D02*
X87553110Y-135254431D01*
X87805000Y-135305440D01*
X88305183Y-135305440D01*
X88227000Y-135494191D01*
X88227000Y-136334750D01*
X88385750Y-136493500D01*
X89535000Y-136493500D01*
X89535000Y-136473500D01*
X89789000Y-136473500D01*
X89789000Y-136493500D01*
X90938250Y-136493500D01*
X91048375Y-136383375D01*
X91820500Y-137155500D01*
X91820500Y-139268560D01*
X91805500Y-139268560D01*
X91570183Y-139312838D01*
X91354059Y-139451910D01*
X91209069Y-139664110D01*
X91158060Y-139916000D01*
X91158060Y-141516000D01*
X91202338Y-141751317D01*
X91320052Y-141934250D01*
X91092071Y-141706269D01*
X91109440Y-141620500D01*
X91109440Y-139620500D01*
X91065162Y-139385183D01*
X90926090Y-139169059D01*
X90713890Y-139024069D01*
X90462000Y-138973060D01*
X89407560Y-138973060D01*
X88657692Y-138223192D01*
X88735690Y-138255500D01*
X89376250Y-138255500D01*
X89535000Y-138096750D01*
X89535000Y-136747500D01*
X89789000Y-136747500D01*
X89789000Y-138096750D01*
X89947750Y-138255500D01*
X90588310Y-138255500D01*
X90821699Y-138158827D01*
X91000327Y-137980198D01*
X91097000Y-137746809D01*
X91097000Y-136906250D01*
X90938250Y-136747500D01*
X89789000Y-136747500D01*
X89535000Y-136747500D01*
X88385750Y-136747500D01*
X88227000Y-136906250D01*
X88227000Y-137746809D01*
X88259308Y-137824808D01*
X86741500Y-136307000D01*
X86741500Y-135305440D01*
X86756500Y-135305440D01*
X86991817Y-135261162D01*
X87207941Y-135122090D01*
X87280611Y-135015734D01*
X87340910Y-135109441D01*
X87340910Y-135109441D01*
G37*
X87340910Y-135109441D02*
X87553110Y-135254431D01*
X87805000Y-135305440D01*
X88305183Y-135305440D01*
X88227000Y-135494191D01*
X88227000Y-136334750D01*
X88385750Y-136493500D01*
X89535000Y-136493500D01*
X89535000Y-136473500D01*
X89789000Y-136473500D01*
X89789000Y-136493500D01*
X90938250Y-136493500D01*
X91048375Y-136383375D01*
X91820500Y-137155500D01*
X91820500Y-139268560D01*
X91805500Y-139268560D01*
X91570183Y-139312838D01*
X91354059Y-139451910D01*
X91209069Y-139664110D01*
X91158060Y-139916000D01*
X91158060Y-141516000D01*
X91202338Y-141751317D01*
X91320052Y-141934250D01*
X91092071Y-141706269D01*
X91109440Y-141620500D01*
X91109440Y-139620500D01*
X91065162Y-139385183D01*
X90926090Y-139169059D01*
X90713890Y-139024069D01*
X90462000Y-138973060D01*
X89407560Y-138973060D01*
X88657692Y-138223192D01*
X88735690Y-138255500D01*
X89376250Y-138255500D01*
X89535000Y-138096750D01*
X89535000Y-136747500D01*
X89789000Y-136747500D01*
X89789000Y-138096750D01*
X89947750Y-138255500D01*
X90588310Y-138255500D01*
X90821699Y-138158827D01*
X91000327Y-137980198D01*
X91097000Y-137746809D01*
X91097000Y-136906250D01*
X90938250Y-136747500D01*
X89789000Y-136747500D01*
X89535000Y-136747500D01*
X88385750Y-136747500D01*
X88227000Y-136906250D01*
X88227000Y-137746809D01*
X88259308Y-137824808D01*
X86741500Y-136307000D01*
X86741500Y-135305440D01*
X86756500Y-135305440D01*
X86991817Y-135261162D01*
X87207941Y-135122090D01*
X87280611Y-135015734D01*
X87340910Y-135109441D01*
G36*
X88816000Y-129064500D02*
X88887457Y-129064500D01*
X88648000Y-129224500D01*
X88479619Y-129476500D01*
X85489022Y-129476500D01*
X85405500Y-129351500D01*
X85085943Y-129137979D01*
X84709000Y-129063000D01*
X84332057Y-129137979D01*
X84012500Y-129351500D01*
X83928978Y-129476500D01*
X77863767Y-129476500D01*
X75522844Y-129001000D01*
X88496766Y-129001000D01*
X88816000Y-129064500D01*
X88816000Y-129064500D01*
G37*
X88816000Y-129064500D02*
X88887457Y-129064500D01*
X88648000Y-129224500D01*
X88479619Y-129476500D01*
X85489022Y-129476500D01*
X85405500Y-129351500D01*
X85085943Y-129137979D01*
X84709000Y-129063000D01*
X84332057Y-129137979D01*
X84012500Y-129351500D01*
X83928978Y-129476500D01*
X77863767Y-129476500D01*
X75522844Y-129001000D01*
X88496766Y-129001000D01*
X88816000Y-129064500D01*
G36*
X108974673Y-117789301D02*
X108878000Y-118022690D01*
X108878000Y-118713250D01*
X109036750Y-118872000D01*
X110236000Y-118872000D01*
X110236000Y-118852000D01*
X110490000Y-118852000D01*
X110490000Y-118872000D01*
X111689250Y-118872000D01*
X111848000Y-118713250D01*
X111848000Y-118022690D01*
X111751327Y-117789301D01*
X111691025Y-117729000D01*
X113315000Y-117729000D01*
X113315000Y-129476500D01*
X108327000Y-129476500D01*
X106566940Y-127716440D01*
X107364000Y-127716440D01*
X107599317Y-127672162D01*
X107815441Y-127533090D01*
X107960431Y-127320890D01*
X108011440Y-127069000D01*
X108011440Y-126169000D01*
X107974317Y-125971709D01*
X108107431Y-125776890D01*
X108158440Y-125525000D01*
X108158440Y-124325000D01*
X108114162Y-124089683D01*
X107975090Y-123873559D01*
X107906994Y-123827031D01*
X108049327Y-123684698D01*
X108146000Y-123451309D01*
X108146000Y-123010750D01*
X107987250Y-122852000D01*
X107188000Y-122852000D01*
X107188000Y-122872000D01*
X106934000Y-122872000D01*
X106934000Y-122852000D01*
X106134750Y-122852000D01*
X106057568Y-122929182D01*
X106047890Y-122922569D01*
X105796000Y-122871560D01*
X105505813Y-122871560D01*
X105480925Y-122746440D01*
X105796000Y-122746440D01*
X106031317Y-122702162D01*
X106193189Y-122598000D01*
X106934000Y-122598000D01*
X106934000Y-121051500D01*
X107188000Y-121051500D01*
X107188000Y-122598000D01*
X107987250Y-122598000D01*
X108146000Y-122439250D01*
X108146000Y-121998691D01*
X108073951Y-121824750D01*
X108146000Y-121650809D01*
X108146000Y-121539000D01*
X108848907Y-121539000D01*
X108961946Y-122107285D01*
X109283853Y-122589054D01*
X109765622Y-122910961D01*
X110333907Y-123024000D01*
X110392093Y-123024000D01*
X110960378Y-122910961D01*
X111442147Y-122589054D01*
X111764054Y-122107285D01*
X111877093Y-121539000D01*
X111764054Y-120970715D01*
X111442147Y-120488946D01*
X111398223Y-120459597D01*
X111572698Y-120387327D01*
X111751327Y-120208699D01*
X111848000Y-119975310D01*
X111848000Y-119284750D01*
X111689250Y-119126000D01*
X110490000Y-119126000D01*
X110490000Y-119146000D01*
X110236000Y-119146000D01*
X110236000Y-119126000D01*
X109036750Y-119126000D01*
X108878000Y-119284750D01*
X108878000Y-119975310D01*
X108974673Y-120208699D01*
X109153302Y-120387327D01*
X109327777Y-120459597D01*
X109283853Y-120488946D01*
X108961946Y-120970715D01*
X108848907Y-121539000D01*
X108146000Y-121539000D01*
X108146000Y-121210250D01*
X107987250Y-121051500D01*
X107188000Y-121051500D01*
X106934000Y-121051500D01*
X106914000Y-121051500D01*
X106914000Y-120797500D01*
X106934000Y-120797500D01*
X106934000Y-120777500D01*
X107188000Y-120777500D01*
X107188000Y-120797500D01*
X107987250Y-120797500D01*
X108146000Y-120638750D01*
X108146000Y-120198191D01*
X108049327Y-119964802D01*
X107908090Y-119823564D01*
X107962441Y-119788590D01*
X108107431Y-119576390D01*
X108158440Y-119324500D01*
X108158440Y-118124500D01*
X108114162Y-117889183D01*
X108011087Y-117729000D01*
X109034975Y-117729000D01*
X108974673Y-117789301D01*
X108974673Y-117789301D01*
G37*
X108974673Y-117789301D02*
X108878000Y-118022690D01*
X108878000Y-118713250D01*
X109036750Y-118872000D01*
X110236000Y-118872000D01*
X110236000Y-118852000D01*
X110490000Y-118852000D01*
X110490000Y-118872000D01*
X111689250Y-118872000D01*
X111848000Y-118713250D01*
X111848000Y-118022690D01*
X111751327Y-117789301D01*
X111691025Y-117729000D01*
X113315000Y-117729000D01*
X113315000Y-129476500D01*
X108327000Y-129476500D01*
X106566940Y-127716440D01*
X107364000Y-127716440D01*
X107599317Y-127672162D01*
X107815441Y-127533090D01*
X107960431Y-127320890D01*
X108011440Y-127069000D01*
X108011440Y-126169000D01*
X107974317Y-125971709D01*
X108107431Y-125776890D01*
X108158440Y-125525000D01*
X108158440Y-124325000D01*
X108114162Y-124089683D01*
X107975090Y-123873559D01*
X107906994Y-123827031D01*
X108049327Y-123684698D01*
X108146000Y-123451309D01*
X108146000Y-123010750D01*
X107987250Y-122852000D01*
X107188000Y-122852000D01*
X107188000Y-122872000D01*
X106934000Y-122872000D01*
X106934000Y-122852000D01*
X106134750Y-122852000D01*
X106057568Y-122929182D01*
X106047890Y-122922569D01*
X105796000Y-122871560D01*
X105505813Y-122871560D01*
X105480925Y-122746440D01*
X105796000Y-122746440D01*
X106031317Y-122702162D01*
X106193189Y-122598000D01*
X106934000Y-122598000D01*
X106934000Y-121051500D01*
X107188000Y-121051500D01*
X107188000Y-122598000D01*
X107987250Y-122598000D01*
X108146000Y-122439250D01*
X108146000Y-121998691D01*
X108073951Y-121824750D01*
X108146000Y-121650809D01*
X108146000Y-121539000D01*
X108848907Y-121539000D01*
X108961946Y-122107285D01*
X109283853Y-122589054D01*
X109765622Y-122910961D01*
X110333907Y-123024000D01*
X110392093Y-123024000D01*
X110960378Y-122910961D01*
X111442147Y-122589054D01*
X111764054Y-122107285D01*
X111877093Y-121539000D01*
X111764054Y-120970715D01*
X111442147Y-120488946D01*
X111398223Y-120459597D01*
X111572698Y-120387327D01*
X111751327Y-120208699D01*
X111848000Y-119975310D01*
X111848000Y-119284750D01*
X111689250Y-119126000D01*
X110490000Y-119126000D01*
X110490000Y-119146000D01*
X110236000Y-119146000D01*
X110236000Y-119126000D01*
X109036750Y-119126000D01*
X108878000Y-119284750D01*
X108878000Y-119975310D01*
X108974673Y-120208699D01*
X109153302Y-120387327D01*
X109327777Y-120459597D01*
X109283853Y-120488946D01*
X108961946Y-120970715D01*
X108848907Y-121539000D01*
X108146000Y-121539000D01*
X108146000Y-121210250D01*
X107987250Y-121051500D01*
X107188000Y-121051500D01*
X106934000Y-121051500D01*
X106914000Y-121051500D01*
X106914000Y-120797500D01*
X106934000Y-120797500D01*
X106934000Y-120777500D01*
X107188000Y-120777500D01*
X107188000Y-120797500D01*
X107987250Y-120797500D01*
X108146000Y-120638750D01*
X108146000Y-120198191D01*
X108049327Y-119964802D01*
X107908090Y-119823564D01*
X107962441Y-119788590D01*
X108107431Y-119576390D01*
X108158440Y-119324500D01*
X108158440Y-118124500D01*
X108114162Y-117889183D01*
X108011087Y-117729000D01*
X109034975Y-117729000D01*
X108974673Y-117789301D01*
G36*
X101284500Y-125412500D02*
X101070979Y-125732057D01*
X100996000Y-126109000D01*
X100996000Y-127000000D01*
X101070979Y-127376943D01*
X101284500Y-127696500D01*
X102618000Y-129030000D01*
X102937557Y-129243521D01*
X103314500Y-129318500D01*
X105383000Y-129318500D01*
X105541000Y-129476500D01*
X90209381Y-129476500D01*
X90041000Y-129224500D01*
X89801543Y-129064500D01*
X95821500Y-129064500D01*
X96198443Y-128989521D01*
X96518000Y-128776000D01*
X101164560Y-124129440D01*
X102441000Y-124129440D01*
X102596893Y-124100107D01*
X101284500Y-125412500D01*
X101284500Y-125412500D01*
G37*
X101284500Y-125412500D02*
X101070979Y-125732057D01*
X100996000Y-126109000D01*
X100996000Y-127000000D01*
X101070979Y-127376943D01*
X101284500Y-127696500D01*
X102618000Y-129030000D01*
X102937557Y-129243521D01*
X103314500Y-129318500D01*
X105383000Y-129318500D01*
X105541000Y-129476500D01*
X90209381Y-129476500D01*
X90041000Y-129224500D01*
X89801543Y-129064500D01*
X95821500Y-129064500D01*
X96198443Y-128989521D01*
X96518000Y-128776000D01*
X101164560Y-124129440D01*
X102441000Y-124129440D01*
X102596893Y-124100107D01*
X101284500Y-125412500D01*
G36*
X73947069Y-117809110D02*
X73896060Y-118061000D01*
X73896060Y-118577572D01*
X73008993Y-119464639D01*
X72938414Y-119477919D01*
X72904810Y-119464000D01*
X72739250Y-119464000D01*
X72580502Y-119622748D01*
X72580502Y-119464000D01*
X72488500Y-119464000D01*
X72488500Y-119362000D01*
X72413521Y-118985057D01*
X72387940Y-118946772D01*
X72387940Y-118549000D01*
X72343662Y-118313683D01*
X72204590Y-118097559D01*
X71992390Y-117952569D01*
X71740500Y-117901560D01*
X70540500Y-117901560D01*
X70305183Y-117945838D01*
X70089059Y-118084910D01*
X70042531Y-118153006D01*
X69900198Y-118010673D01*
X69666809Y-117914000D01*
X69226250Y-117914000D01*
X69067500Y-118072750D01*
X69067500Y-118872000D01*
X69087500Y-118872000D01*
X69087500Y-119126000D01*
X69067500Y-119126000D01*
X69067500Y-119925250D01*
X69226250Y-120084000D01*
X69468661Y-120084000D01*
X69257479Y-120400057D01*
X69251777Y-120428723D01*
X68677000Y-121003500D01*
X68522611Y-121234560D01*
X68373500Y-121234560D01*
X68138183Y-121278838D01*
X67922059Y-121417910D01*
X67777069Y-121630110D01*
X67726060Y-121882000D01*
X67726060Y-123482000D01*
X67770338Y-123717317D01*
X67909410Y-123933441D01*
X68121610Y-124078431D01*
X68373500Y-124129440D01*
X69333909Y-124129440D01*
X69325479Y-124142057D01*
X69295166Y-124294448D01*
X69253353Y-124444090D01*
X69257905Y-124481771D01*
X69250500Y-124519000D01*
X69280813Y-124671395D01*
X69299448Y-124825644D01*
X69318074Y-124858715D01*
X69325479Y-124895943D01*
X69411801Y-125025133D01*
X69488048Y-125160514D01*
X69517913Y-125183941D01*
X69539000Y-125215500D01*
X69668188Y-125301821D01*
X69790441Y-125397719D01*
X69826998Y-125407934D01*
X69858557Y-125429021D01*
X70010948Y-125459334D01*
X70160590Y-125501147D01*
X70219590Y-125505647D01*
X70234640Y-125503829D01*
X70235500Y-125504000D01*
X70531060Y-125504000D01*
X70531060Y-125519000D01*
X70575338Y-125754317D01*
X70714410Y-125970441D01*
X70926610Y-126115431D01*
X71178500Y-126166440D01*
X71468500Y-126166440D01*
X71468500Y-126322000D01*
X71503060Y-126495744D01*
X71503060Y-127069000D01*
X71547338Y-127304317D01*
X71686410Y-127520441D01*
X71898610Y-127665431D01*
X72150500Y-127716440D01*
X72454940Y-127716440D01*
X73284922Y-128546422D01*
X61722000Y-126197704D01*
X61722000Y-125597667D01*
X64469838Y-125597667D01*
X64611883Y-125941443D01*
X64874673Y-126204692D01*
X65218201Y-126347338D01*
X65590167Y-126347662D01*
X65933943Y-126205617D01*
X66197192Y-125942827D01*
X66339838Y-125599299D01*
X66340162Y-125227333D01*
X66198117Y-124883557D01*
X65935327Y-124620308D01*
X65591799Y-124477662D01*
X65219833Y-124477338D01*
X64876057Y-124619383D01*
X64612808Y-124882173D01*
X64470162Y-125225701D01*
X64469838Y-125597667D01*
X61722000Y-125597667D01*
X61722000Y-122967750D01*
X63738500Y-122967750D01*
X63738500Y-123608310D01*
X63835173Y-123841699D01*
X64013802Y-124020327D01*
X64247191Y-124117000D01*
X65087750Y-124117000D01*
X65246500Y-123958250D01*
X65246500Y-122809000D01*
X65500500Y-122809000D01*
X65500500Y-123958250D01*
X65659250Y-124117000D01*
X66499809Y-124117000D01*
X66733198Y-124020327D01*
X66911827Y-123841699D01*
X67008500Y-123608310D01*
X67008500Y-122967750D01*
X66849750Y-122809000D01*
X65500500Y-122809000D01*
X65246500Y-122809000D01*
X63897250Y-122809000D01*
X63738500Y-122967750D01*
X61722000Y-122967750D01*
X61722000Y-121755690D01*
X63738500Y-121755690D01*
X63738500Y-122396250D01*
X63897250Y-122555000D01*
X65246500Y-122555000D01*
X65246500Y-121405750D01*
X65500500Y-121405750D01*
X65500500Y-122555000D01*
X66849750Y-122555000D01*
X67008500Y-122396250D01*
X67008500Y-121755690D01*
X66911827Y-121522301D01*
X66733198Y-121343673D01*
X66499809Y-121247000D01*
X65659250Y-121247000D01*
X65500500Y-121405750D01*
X65246500Y-121405750D01*
X65087750Y-121247000D01*
X64247191Y-121247000D01*
X64013802Y-121343673D01*
X63835173Y-121522301D01*
X63738500Y-121755690D01*
X61722000Y-121755690D01*
X61722000Y-119284750D01*
X67705500Y-119284750D01*
X67705500Y-119575310D01*
X67802173Y-119808699D01*
X67980802Y-119987327D01*
X68214191Y-120084000D01*
X68654750Y-120084000D01*
X68813500Y-119925250D01*
X68813500Y-119126000D01*
X67864250Y-119126000D01*
X67705500Y-119284750D01*
X61722000Y-119284750D01*
X61722000Y-118422690D01*
X67705500Y-118422690D01*
X67705500Y-118713250D01*
X67864250Y-118872000D01*
X68813500Y-118872000D01*
X68813500Y-118072750D01*
X68654750Y-117914000D01*
X68214191Y-117914000D01*
X67980802Y-118010673D01*
X67802173Y-118189301D01*
X67705500Y-118422690D01*
X61722000Y-118422690D01*
X61722000Y-117729000D01*
X74001806Y-117729000D01*
X73947069Y-117809110D01*
X73947069Y-117809110D01*
G37*
X73947069Y-117809110D02*
X73896060Y-118061000D01*
X73896060Y-118577572D01*
X73008993Y-119464639D01*
X72938414Y-119477919D01*
X72904810Y-119464000D01*
X72739250Y-119464000D01*
X72580502Y-119622748D01*
X72580502Y-119464000D01*
X72488500Y-119464000D01*
X72488500Y-119362000D01*
X72413521Y-118985057D01*
X72387940Y-118946772D01*
X72387940Y-118549000D01*
X72343662Y-118313683D01*
X72204590Y-118097559D01*
X71992390Y-117952569D01*
X71740500Y-117901560D01*
X70540500Y-117901560D01*
X70305183Y-117945838D01*
X70089059Y-118084910D01*
X70042531Y-118153006D01*
X69900198Y-118010673D01*
X69666809Y-117914000D01*
X69226250Y-117914000D01*
X69067500Y-118072750D01*
X69067500Y-118872000D01*
X69087500Y-118872000D01*
X69087500Y-119126000D01*
X69067500Y-119126000D01*
X69067500Y-119925250D01*
X69226250Y-120084000D01*
X69468661Y-120084000D01*
X69257479Y-120400057D01*
X69251777Y-120428723D01*
X68677000Y-121003500D01*
X68522611Y-121234560D01*
X68373500Y-121234560D01*
X68138183Y-121278838D01*
X67922059Y-121417910D01*
X67777069Y-121630110D01*
X67726060Y-121882000D01*
X67726060Y-123482000D01*
X67770338Y-123717317D01*
X67909410Y-123933441D01*
X68121610Y-124078431D01*
X68373500Y-124129440D01*
X69333909Y-124129440D01*
X69325479Y-124142057D01*
X69295166Y-124294448D01*
X69253353Y-124444090D01*
X69257905Y-124481771D01*
X69250500Y-124519000D01*
X69280813Y-124671395D01*
X69299448Y-124825644D01*
X69318074Y-124858715D01*
X69325479Y-124895943D01*
X69411801Y-125025133D01*
X69488048Y-125160514D01*
X69517913Y-125183941D01*
X69539000Y-125215500D01*
X69668188Y-125301821D01*
X69790441Y-125397719D01*
X69826998Y-125407934D01*
X69858557Y-125429021D01*
X70010948Y-125459334D01*
X70160590Y-125501147D01*
X70219590Y-125505647D01*
X70234640Y-125503829D01*
X70235500Y-125504000D01*
X70531060Y-125504000D01*
X70531060Y-125519000D01*
X70575338Y-125754317D01*
X70714410Y-125970441D01*
X70926610Y-126115431D01*
X71178500Y-126166440D01*
X71468500Y-126166440D01*
X71468500Y-126322000D01*
X71503060Y-126495744D01*
X71503060Y-127069000D01*
X71547338Y-127304317D01*
X71686410Y-127520441D01*
X71898610Y-127665431D01*
X72150500Y-127716440D01*
X72454940Y-127716440D01*
X73284922Y-128546422D01*
X61722000Y-126197704D01*
X61722000Y-125597667D01*
X64469838Y-125597667D01*
X64611883Y-125941443D01*
X64874673Y-126204692D01*
X65218201Y-126347338D01*
X65590167Y-126347662D01*
X65933943Y-126205617D01*
X66197192Y-125942827D01*
X66339838Y-125599299D01*
X66340162Y-125227333D01*
X66198117Y-124883557D01*
X65935327Y-124620308D01*
X65591799Y-124477662D01*
X65219833Y-124477338D01*
X64876057Y-124619383D01*
X64612808Y-124882173D01*
X64470162Y-125225701D01*
X64469838Y-125597667D01*
X61722000Y-125597667D01*
X61722000Y-122967750D01*
X63738500Y-122967750D01*
X63738500Y-123608310D01*
X63835173Y-123841699D01*
X64013802Y-124020327D01*
X64247191Y-124117000D01*
X65087750Y-124117000D01*
X65246500Y-123958250D01*
X65246500Y-122809000D01*
X65500500Y-122809000D01*
X65500500Y-123958250D01*
X65659250Y-124117000D01*
X66499809Y-124117000D01*
X66733198Y-124020327D01*
X66911827Y-123841699D01*
X67008500Y-123608310D01*
X67008500Y-122967750D01*
X66849750Y-122809000D01*
X65500500Y-122809000D01*
X65246500Y-122809000D01*
X63897250Y-122809000D01*
X63738500Y-122967750D01*
X61722000Y-122967750D01*
X61722000Y-121755690D01*
X63738500Y-121755690D01*
X63738500Y-122396250D01*
X63897250Y-122555000D01*
X65246500Y-122555000D01*
X65246500Y-121405750D01*
X65500500Y-121405750D01*
X65500500Y-122555000D01*
X66849750Y-122555000D01*
X67008500Y-122396250D01*
X67008500Y-121755690D01*
X66911827Y-121522301D01*
X66733198Y-121343673D01*
X66499809Y-121247000D01*
X65659250Y-121247000D01*
X65500500Y-121405750D01*
X65246500Y-121405750D01*
X65087750Y-121247000D01*
X64247191Y-121247000D01*
X64013802Y-121343673D01*
X63835173Y-121522301D01*
X63738500Y-121755690D01*
X61722000Y-121755690D01*
X61722000Y-119284750D01*
X67705500Y-119284750D01*
X67705500Y-119575310D01*
X67802173Y-119808699D01*
X67980802Y-119987327D01*
X68214191Y-120084000D01*
X68654750Y-120084000D01*
X68813500Y-119925250D01*
X68813500Y-119126000D01*
X67864250Y-119126000D01*
X67705500Y-119284750D01*
X61722000Y-119284750D01*
X61722000Y-118422690D01*
X67705500Y-118422690D01*
X67705500Y-118713250D01*
X67864250Y-118872000D01*
X68813500Y-118872000D01*
X68813500Y-118072750D01*
X68654750Y-117914000D01*
X68214191Y-117914000D01*
X67980802Y-118010673D01*
X67802173Y-118189301D01*
X67705500Y-118422690D01*
X61722000Y-118422690D01*
X61722000Y-117729000D01*
X74001806Y-117729000D01*
X73947069Y-117809110D01*
G36*
X88640500Y-117934691D02*
X88640500Y-118375250D01*
X88799250Y-118534000D01*
X89598500Y-118534000D01*
X89598500Y-118514000D01*
X89852500Y-118514000D01*
X89852500Y-118534000D01*
X90651750Y-118534000D01*
X90699560Y-118486190D01*
X99836500Y-118486190D01*
X99836500Y-118776750D01*
X99995250Y-118935500D01*
X100944500Y-118935500D01*
X100944500Y-118136250D01*
X100785750Y-117977500D01*
X100345191Y-117977500D01*
X100111802Y-118074173D01*
X99933173Y-118252801D01*
X99836500Y-118486190D01*
X90699560Y-118486190D01*
X90810500Y-118375250D01*
X90810500Y-117934691D01*
X90725300Y-117729000D01*
X106112693Y-117729000D01*
X106014569Y-117872610D01*
X105963560Y-118124500D01*
X105963560Y-118641072D01*
X105153072Y-119451560D01*
X105146000Y-119451560D01*
X105005914Y-119477919D01*
X104972310Y-119464000D01*
X104806750Y-119464000D01*
X104648000Y-119622750D01*
X104648000Y-119703051D01*
X104549569Y-119847110D01*
X104521824Y-119984120D01*
X104499162Y-119863683D01*
X104451110Y-119789008D01*
X104467931Y-119764390D01*
X104518940Y-119512500D01*
X104518940Y-118612500D01*
X104474662Y-118377183D01*
X104335590Y-118161059D01*
X104123390Y-118016069D01*
X103871500Y-117965060D01*
X102671500Y-117965060D01*
X102436183Y-118009338D01*
X102220059Y-118148410D01*
X102173531Y-118216506D01*
X102031198Y-118074173D01*
X101797809Y-117977500D01*
X101357250Y-117977500D01*
X101198500Y-118136250D01*
X101198500Y-118935500D01*
X101218500Y-118935500D01*
X101218500Y-119189500D01*
X101198500Y-119189500D01*
X101198500Y-119988750D01*
X101262512Y-120052762D01*
X101221000Y-120080500D01*
X101093132Y-120271868D01*
X100744500Y-120620500D01*
X100530979Y-120940057D01*
X100472398Y-121234560D01*
X100441000Y-121234560D01*
X100205683Y-121278838D01*
X99989559Y-121417910D01*
X99844569Y-121630110D01*
X99793560Y-121882000D01*
X99793560Y-122714440D01*
X99076000Y-123432000D01*
X99076000Y-122967750D01*
X98917250Y-122809000D01*
X97568000Y-122809000D01*
X97568000Y-123958250D01*
X97726750Y-124117000D01*
X98391000Y-124117000D01*
X95413500Y-127094500D01*
X90797776Y-127094500D01*
X90802940Y-127069000D01*
X90802940Y-126169000D01*
X90758662Y-125933683D01*
X90713138Y-125862937D01*
X90771931Y-125776890D01*
X90822940Y-125525000D01*
X90822940Y-124325000D01*
X90778662Y-124089683D01*
X90639590Y-123873559D01*
X90571494Y-123827031D01*
X90713827Y-123684698D01*
X90810500Y-123451309D01*
X90810500Y-123010750D01*
X90767500Y-122967750D01*
X95806000Y-122967750D01*
X95806000Y-123608310D01*
X95902673Y-123841699D01*
X96081302Y-124020327D01*
X96314691Y-124117000D01*
X97155250Y-124117000D01*
X97314000Y-123958250D01*
X97314000Y-122809000D01*
X95964750Y-122809000D01*
X95806000Y-122967750D01*
X90767500Y-122967750D01*
X90651750Y-122852000D01*
X89852500Y-122852000D01*
X89852500Y-122872000D01*
X89598500Y-122872000D01*
X89598500Y-122852000D01*
X88799250Y-122852000D01*
X88722068Y-122929182D01*
X88712390Y-122922569D01*
X88460500Y-122871560D01*
X88049753Y-122871560D01*
X87966150Y-122746440D01*
X88460500Y-122746440D01*
X88695817Y-122702162D01*
X88857689Y-122598000D01*
X89598500Y-122598000D01*
X89598500Y-122578000D01*
X89852500Y-122578000D01*
X89852500Y-122598000D01*
X90651750Y-122598000D01*
X90810500Y-122439250D01*
X90810500Y-121998691D01*
X90722241Y-121785614D01*
X90742687Y-121755690D01*
X95806000Y-121755690D01*
X95806000Y-122396250D01*
X95964750Y-122555000D01*
X97314000Y-122555000D01*
X97314000Y-121405750D01*
X97568000Y-121405750D01*
X97568000Y-122555000D01*
X98917250Y-122555000D01*
X99076000Y-122396250D01*
X99076000Y-121755690D01*
X98979327Y-121522301D01*
X98800698Y-121343673D01*
X98567309Y-121247000D01*
X97726750Y-121247000D01*
X97568000Y-121405750D01*
X97314000Y-121405750D01*
X97155250Y-121247000D01*
X96314691Y-121247000D01*
X96081302Y-121343673D01*
X95902673Y-121522301D01*
X95806000Y-121755690D01*
X90742687Y-121755690D01*
X90771931Y-121712890D01*
X90822940Y-121461000D01*
X90822940Y-120261000D01*
X90778662Y-120025683D01*
X90639590Y-119809559D01*
X90571494Y-119763031D01*
X90713827Y-119620698D01*
X90810500Y-119387309D01*
X90810500Y-119348250D01*
X99836500Y-119348250D01*
X99836500Y-119638810D01*
X99933173Y-119872199D01*
X100111802Y-120050827D01*
X100345191Y-120147500D01*
X100785750Y-120147500D01*
X100944500Y-119988750D01*
X100944500Y-119189500D01*
X99995250Y-119189500D01*
X99836500Y-119348250D01*
X90810500Y-119348250D01*
X90810500Y-118946750D01*
X90651750Y-118788000D01*
X89852500Y-118788000D01*
X89852500Y-118808000D01*
X89598500Y-118808000D01*
X89598500Y-118788000D01*
X88799250Y-118788000D01*
X88640500Y-118946750D01*
X88640500Y-119387309D01*
X88686031Y-119497231D01*
X88460500Y-119451560D01*
X87810500Y-119451560D01*
X87670414Y-119477919D01*
X87636810Y-119464000D01*
X87471250Y-119464000D01*
X87312500Y-119622750D01*
X87312500Y-119703051D01*
X87214069Y-119847110D01*
X87186324Y-119984120D01*
X87163662Y-119863683D01*
X87063769Y-119708445D01*
X87068931Y-119700890D01*
X87119940Y-119449000D01*
X87119940Y-118549000D01*
X87075662Y-118313683D01*
X86936590Y-118097559D01*
X86724390Y-117952569D01*
X86472500Y-117901560D01*
X85272500Y-117901560D01*
X85037183Y-117945838D01*
X84821059Y-118084910D01*
X84774531Y-118153006D01*
X84632198Y-118010673D01*
X84398809Y-117914000D01*
X83958250Y-117914000D01*
X83799500Y-118072750D01*
X83799500Y-118872000D01*
X83819500Y-118872000D01*
X83819500Y-119126000D01*
X83799500Y-119126000D01*
X83799500Y-119925250D01*
X83958250Y-120084000D01*
X83967732Y-120084000D01*
X83884632Y-120208368D01*
X83409000Y-120684000D01*
X83195479Y-121003557D01*
X83149529Y-121234560D01*
X83105500Y-121234560D01*
X82870183Y-121278838D01*
X82654059Y-121417910D01*
X82509069Y-121630110D01*
X82458060Y-121882000D01*
X82458060Y-123482000D01*
X82502338Y-123717317D01*
X82641410Y-123933441D01*
X82853610Y-124078431D01*
X83105500Y-124129440D01*
X84000916Y-124129440D01*
X83989479Y-124146557D01*
X83914500Y-124523500D01*
X83989479Y-124900443D01*
X84203000Y-125220000D01*
X84522557Y-125433521D01*
X84899500Y-125508500D01*
X84922123Y-125504000D01*
X85263060Y-125504000D01*
X85263060Y-125519000D01*
X85307338Y-125754317D01*
X85446410Y-125970441D01*
X85658610Y-126115431D01*
X85910500Y-126166440D01*
X86108578Y-126166440D01*
X86108060Y-126169000D01*
X86108060Y-126493940D01*
X85571000Y-127031000D01*
X76197940Y-127031000D01*
X76197940Y-126169000D01*
X76153662Y-125933683D01*
X76043004Y-125761715D01*
X76090940Y-125525000D01*
X76090940Y-124325000D01*
X76046662Y-124089683D01*
X75907590Y-123873559D01*
X75839494Y-123827031D01*
X75981827Y-123684698D01*
X76078500Y-123451309D01*
X76078500Y-123010750D01*
X76035500Y-122967750D01*
X78470500Y-122967750D01*
X78470500Y-123608310D01*
X78567173Y-123841699D01*
X78745802Y-124020327D01*
X78979191Y-124117000D01*
X79819750Y-124117000D01*
X79978500Y-123958250D01*
X79978500Y-122809000D01*
X80232500Y-122809000D01*
X80232500Y-123958250D01*
X80391250Y-124117000D01*
X81231809Y-124117000D01*
X81465198Y-124020327D01*
X81643827Y-123841699D01*
X81740500Y-123608310D01*
X81740500Y-122967750D01*
X81581750Y-122809000D01*
X80232500Y-122809000D01*
X79978500Y-122809000D01*
X78629250Y-122809000D01*
X78470500Y-122967750D01*
X76035500Y-122967750D01*
X75919750Y-122852000D01*
X75120500Y-122852000D01*
X75120500Y-122872000D01*
X74866500Y-122872000D01*
X74866500Y-122852000D01*
X74067250Y-122852000D01*
X73990068Y-122929182D01*
X73980390Y-122922569D01*
X73728500Y-122871560D01*
X73464294Y-122871560D01*
X73489182Y-122746440D01*
X73728500Y-122746440D01*
X73963817Y-122702162D01*
X74125689Y-122598000D01*
X74866500Y-122598000D01*
X74866500Y-120988000D01*
X75120500Y-120988000D01*
X75120500Y-122598000D01*
X75919750Y-122598000D01*
X76078500Y-122439250D01*
X76078500Y-121998691D01*
X75993300Y-121793000D01*
X76008754Y-121755690D01*
X78470500Y-121755690D01*
X78470500Y-122396250D01*
X78629250Y-122555000D01*
X79978500Y-122555000D01*
X79978500Y-121405750D01*
X80232500Y-121405750D01*
X80232500Y-122555000D01*
X81581750Y-122555000D01*
X81740500Y-122396250D01*
X81740500Y-121755690D01*
X81643827Y-121522301D01*
X81465198Y-121343673D01*
X81231809Y-121247000D01*
X80391250Y-121247000D01*
X80232500Y-121405750D01*
X79978500Y-121405750D01*
X79819750Y-121247000D01*
X78979191Y-121247000D01*
X78745802Y-121343673D01*
X78567173Y-121522301D01*
X78470500Y-121755690D01*
X76008754Y-121755690D01*
X76078500Y-121587309D01*
X76078500Y-121146750D01*
X75919750Y-120988000D01*
X75120500Y-120988000D01*
X74866500Y-120988000D01*
X74846500Y-120988000D01*
X74846500Y-120734000D01*
X74866500Y-120734000D01*
X74866500Y-120714000D01*
X75120500Y-120714000D01*
X75120500Y-120734000D01*
X75919750Y-120734000D01*
X76078500Y-120575250D01*
X76078500Y-120134691D01*
X75981827Y-119901302D01*
X75840590Y-119760064D01*
X75894941Y-119725090D01*
X76039931Y-119512890D01*
X76086130Y-119284750D01*
X82437500Y-119284750D01*
X82437500Y-119575310D01*
X82534173Y-119808699D01*
X82712802Y-119987327D01*
X82946191Y-120084000D01*
X83386750Y-120084000D01*
X83545500Y-119925250D01*
X83545500Y-119126000D01*
X82596250Y-119126000D01*
X82437500Y-119284750D01*
X76086130Y-119284750D01*
X76090940Y-119261000D01*
X76090940Y-118422690D01*
X82437500Y-118422690D01*
X82437500Y-118713250D01*
X82596250Y-118872000D01*
X83545500Y-118872000D01*
X83545500Y-118072750D01*
X83386750Y-117914000D01*
X82946191Y-117914000D01*
X82712802Y-118010673D01*
X82534173Y-118189301D01*
X82437500Y-118422690D01*
X76090940Y-118422690D01*
X76090940Y-118061000D01*
X76046662Y-117825683D01*
X75984448Y-117729000D01*
X88725700Y-117729000D01*
X88640500Y-117934691D01*
X88640500Y-117934691D01*
G37*
X88640500Y-117934691D02*
X88640500Y-118375250D01*
X88799250Y-118534000D01*
X89598500Y-118534000D01*
X89598500Y-118514000D01*
X89852500Y-118514000D01*
X89852500Y-118534000D01*
X90651750Y-118534000D01*
X90699560Y-118486190D01*
X99836500Y-118486190D01*
X99836500Y-118776750D01*
X99995250Y-118935500D01*
X100944500Y-118935500D01*
X100944500Y-118136250D01*
X100785750Y-117977500D01*
X100345191Y-117977500D01*
X100111802Y-118074173D01*
X99933173Y-118252801D01*
X99836500Y-118486190D01*
X90699560Y-118486190D01*
X90810500Y-118375250D01*
X90810500Y-117934691D01*
X90725300Y-117729000D01*
X106112693Y-117729000D01*
X106014569Y-117872610D01*
X105963560Y-118124500D01*
X105963560Y-118641072D01*
X105153072Y-119451560D01*
X105146000Y-119451560D01*
X105005914Y-119477919D01*
X104972310Y-119464000D01*
X104806750Y-119464000D01*
X104648000Y-119622750D01*
X104648000Y-119703051D01*
X104549569Y-119847110D01*
X104521824Y-119984120D01*
X104499162Y-119863683D01*
X104451110Y-119789008D01*
X104467931Y-119764390D01*
X104518940Y-119512500D01*
X104518940Y-118612500D01*
X104474662Y-118377183D01*
X104335590Y-118161059D01*
X104123390Y-118016069D01*
X103871500Y-117965060D01*
X102671500Y-117965060D01*
X102436183Y-118009338D01*
X102220059Y-118148410D01*
X102173531Y-118216506D01*
X102031198Y-118074173D01*
X101797809Y-117977500D01*
X101357250Y-117977500D01*
X101198500Y-118136250D01*
X101198500Y-118935500D01*
X101218500Y-118935500D01*
X101218500Y-119189500D01*
X101198500Y-119189500D01*
X101198500Y-119988750D01*
X101262512Y-120052762D01*
X101221000Y-120080500D01*
X101093132Y-120271868D01*
X100744500Y-120620500D01*
X100530979Y-120940057D01*
X100472398Y-121234560D01*
X100441000Y-121234560D01*
X100205683Y-121278838D01*
X99989559Y-121417910D01*
X99844569Y-121630110D01*
X99793560Y-121882000D01*
X99793560Y-122714440D01*
X99076000Y-123432000D01*
X99076000Y-122967750D01*
X98917250Y-122809000D01*
X97568000Y-122809000D01*
X97568000Y-123958250D01*
X97726750Y-124117000D01*
X98391000Y-124117000D01*
X95413500Y-127094500D01*
X90797776Y-127094500D01*
X90802940Y-127069000D01*
X90802940Y-126169000D01*
X90758662Y-125933683D01*
X90713138Y-125862937D01*
X90771931Y-125776890D01*
X90822940Y-125525000D01*
X90822940Y-124325000D01*
X90778662Y-124089683D01*
X90639590Y-123873559D01*
X90571494Y-123827031D01*
X90713827Y-123684698D01*
X90810500Y-123451309D01*
X90810500Y-123010750D01*
X90767500Y-122967750D01*
X95806000Y-122967750D01*
X95806000Y-123608310D01*
X95902673Y-123841699D01*
X96081302Y-124020327D01*
X96314691Y-124117000D01*
X97155250Y-124117000D01*
X97314000Y-123958250D01*
X97314000Y-122809000D01*
X95964750Y-122809000D01*
X95806000Y-122967750D01*
X90767500Y-122967750D01*
X90651750Y-122852000D01*
X89852500Y-122852000D01*
X89852500Y-122872000D01*
X89598500Y-122872000D01*
X89598500Y-122852000D01*
X88799250Y-122852000D01*
X88722068Y-122929182D01*
X88712390Y-122922569D01*
X88460500Y-122871560D01*
X88049753Y-122871560D01*
X87966150Y-122746440D01*
X88460500Y-122746440D01*
X88695817Y-122702162D01*
X88857689Y-122598000D01*
X89598500Y-122598000D01*
X89598500Y-122578000D01*
X89852500Y-122578000D01*
X89852500Y-122598000D01*
X90651750Y-122598000D01*
X90810500Y-122439250D01*
X90810500Y-121998691D01*
X90722241Y-121785614D01*
X90742687Y-121755690D01*
X95806000Y-121755690D01*
X95806000Y-122396250D01*
X95964750Y-122555000D01*
X97314000Y-122555000D01*
X97314000Y-121405750D01*
X97568000Y-121405750D01*
X97568000Y-122555000D01*
X98917250Y-122555000D01*
X99076000Y-122396250D01*
X99076000Y-121755690D01*
X98979327Y-121522301D01*
X98800698Y-121343673D01*
X98567309Y-121247000D01*
X97726750Y-121247000D01*
X97568000Y-121405750D01*
X97314000Y-121405750D01*
X97155250Y-121247000D01*
X96314691Y-121247000D01*
X96081302Y-121343673D01*
X95902673Y-121522301D01*
X95806000Y-121755690D01*
X90742687Y-121755690D01*
X90771931Y-121712890D01*
X90822940Y-121461000D01*
X90822940Y-120261000D01*
X90778662Y-120025683D01*
X90639590Y-119809559D01*
X90571494Y-119763031D01*
X90713827Y-119620698D01*
X90810500Y-119387309D01*
X90810500Y-119348250D01*
X99836500Y-119348250D01*
X99836500Y-119638810D01*
X99933173Y-119872199D01*
X100111802Y-120050827D01*
X100345191Y-120147500D01*
X100785750Y-120147500D01*
X100944500Y-119988750D01*
X100944500Y-119189500D01*
X99995250Y-119189500D01*
X99836500Y-119348250D01*
X90810500Y-119348250D01*
X90810500Y-118946750D01*
X90651750Y-118788000D01*
X89852500Y-118788000D01*
X89852500Y-118808000D01*
X89598500Y-118808000D01*
X89598500Y-118788000D01*
X88799250Y-118788000D01*
X88640500Y-118946750D01*
X88640500Y-119387309D01*
X88686031Y-119497231D01*
X88460500Y-119451560D01*
X87810500Y-119451560D01*
X87670414Y-119477919D01*
X87636810Y-119464000D01*
X87471250Y-119464000D01*
X87312500Y-119622750D01*
X87312500Y-119703051D01*
X87214069Y-119847110D01*
X87186324Y-119984120D01*
X87163662Y-119863683D01*
X87063769Y-119708445D01*
X87068931Y-119700890D01*
X87119940Y-119449000D01*
X87119940Y-118549000D01*
X87075662Y-118313683D01*
X86936590Y-118097559D01*
X86724390Y-117952569D01*
X86472500Y-117901560D01*
X85272500Y-117901560D01*
X85037183Y-117945838D01*
X84821059Y-118084910D01*
X84774531Y-118153006D01*
X84632198Y-118010673D01*
X84398809Y-117914000D01*
X83958250Y-117914000D01*
X83799500Y-118072750D01*
X83799500Y-118872000D01*
X83819500Y-118872000D01*
X83819500Y-119126000D01*
X83799500Y-119126000D01*
X83799500Y-119925250D01*
X83958250Y-120084000D01*
X83967732Y-120084000D01*
X83884632Y-120208368D01*
X83409000Y-120684000D01*
X83195479Y-121003557D01*
X83149529Y-121234560D01*
X83105500Y-121234560D01*
X82870183Y-121278838D01*
X82654059Y-121417910D01*
X82509069Y-121630110D01*
X82458060Y-121882000D01*
X82458060Y-123482000D01*
X82502338Y-123717317D01*
X82641410Y-123933441D01*
X82853610Y-124078431D01*
X83105500Y-124129440D01*
X84000916Y-124129440D01*
X83989479Y-124146557D01*
X83914500Y-124523500D01*
X83989479Y-124900443D01*
X84203000Y-125220000D01*
X84522557Y-125433521D01*
X84899500Y-125508500D01*
X84922123Y-125504000D01*
X85263060Y-125504000D01*
X85263060Y-125519000D01*
X85307338Y-125754317D01*
X85446410Y-125970441D01*
X85658610Y-126115431D01*
X85910500Y-126166440D01*
X86108578Y-126166440D01*
X86108060Y-126169000D01*
X86108060Y-126493940D01*
X85571000Y-127031000D01*
X76197940Y-127031000D01*
X76197940Y-126169000D01*
X76153662Y-125933683D01*
X76043004Y-125761715D01*
X76090940Y-125525000D01*
X76090940Y-124325000D01*
X76046662Y-124089683D01*
X75907590Y-123873559D01*
X75839494Y-123827031D01*
X75981827Y-123684698D01*
X76078500Y-123451309D01*
X76078500Y-123010750D01*
X76035500Y-122967750D01*
X78470500Y-122967750D01*
X78470500Y-123608310D01*
X78567173Y-123841699D01*
X78745802Y-124020327D01*
X78979191Y-124117000D01*
X79819750Y-124117000D01*
X79978500Y-123958250D01*
X79978500Y-122809000D01*
X80232500Y-122809000D01*
X80232500Y-123958250D01*
X80391250Y-124117000D01*
X81231809Y-124117000D01*
X81465198Y-124020327D01*
X81643827Y-123841699D01*
X81740500Y-123608310D01*
X81740500Y-122967750D01*
X81581750Y-122809000D01*
X80232500Y-122809000D01*
X79978500Y-122809000D01*
X78629250Y-122809000D01*
X78470500Y-122967750D01*
X76035500Y-122967750D01*
X75919750Y-122852000D01*
X75120500Y-122852000D01*
X75120500Y-122872000D01*
X74866500Y-122872000D01*
X74866500Y-122852000D01*
X74067250Y-122852000D01*
X73990068Y-122929182D01*
X73980390Y-122922569D01*
X73728500Y-122871560D01*
X73464294Y-122871560D01*
X73489182Y-122746440D01*
X73728500Y-122746440D01*
X73963817Y-122702162D01*
X74125689Y-122598000D01*
X74866500Y-122598000D01*
X74866500Y-120988000D01*
X75120500Y-120988000D01*
X75120500Y-122598000D01*
X75919750Y-122598000D01*
X76078500Y-122439250D01*
X76078500Y-121998691D01*
X75993300Y-121793000D01*
X76008754Y-121755690D01*
X78470500Y-121755690D01*
X78470500Y-122396250D01*
X78629250Y-122555000D01*
X79978500Y-122555000D01*
X79978500Y-121405750D01*
X80232500Y-121405750D01*
X80232500Y-122555000D01*
X81581750Y-122555000D01*
X81740500Y-122396250D01*
X81740500Y-121755690D01*
X81643827Y-121522301D01*
X81465198Y-121343673D01*
X81231809Y-121247000D01*
X80391250Y-121247000D01*
X80232500Y-121405750D01*
X79978500Y-121405750D01*
X79819750Y-121247000D01*
X78979191Y-121247000D01*
X78745802Y-121343673D01*
X78567173Y-121522301D01*
X78470500Y-121755690D01*
X76008754Y-121755690D01*
X76078500Y-121587309D01*
X76078500Y-121146750D01*
X75919750Y-120988000D01*
X75120500Y-120988000D01*
X74866500Y-120988000D01*
X74846500Y-120988000D01*
X74846500Y-120734000D01*
X74866500Y-120734000D01*
X74866500Y-120714000D01*
X75120500Y-120714000D01*
X75120500Y-120734000D01*
X75919750Y-120734000D01*
X76078500Y-120575250D01*
X76078500Y-120134691D01*
X75981827Y-119901302D01*
X75840590Y-119760064D01*
X75894941Y-119725090D01*
X76039931Y-119512890D01*
X76086130Y-119284750D01*
X82437500Y-119284750D01*
X82437500Y-119575310D01*
X82534173Y-119808699D01*
X82712802Y-119987327D01*
X82946191Y-120084000D01*
X83386750Y-120084000D01*
X83545500Y-119925250D01*
X83545500Y-119126000D01*
X82596250Y-119126000D01*
X82437500Y-119284750D01*
X76086130Y-119284750D01*
X76090940Y-119261000D01*
X76090940Y-118422690D01*
X82437500Y-118422690D01*
X82437500Y-118713250D01*
X82596250Y-118872000D01*
X83545500Y-118872000D01*
X83545500Y-118072750D01*
X83386750Y-117914000D01*
X82946191Y-117914000D01*
X82712802Y-118010673D01*
X82534173Y-118189301D01*
X82437500Y-118422690D01*
X76090940Y-118422690D01*
X76090940Y-118061000D01*
X76046662Y-117825683D01*
X75984448Y-117729000D01*
X88725700Y-117729000D01*
X88640500Y-117934691D01*
M02*
