G04 #@! TF.FileFunction,Soldermask,Bot*
%FSLAX46Y46*%
G04 Gerber Fmt 4.6, Leading zero omitted, Abs format (unit mm)*
G04 Created by KiCad (PCBNEW 4.0.6) date 05/17/18 16:23:16*
%MOMM*%
%LPD*%
G01*
G04 APERTURE LIST*
%ADD10C,0.100000*%
%ADD11R,0.650000X2.000000*%
%ADD12R,0.900000X1.200000*%
%ADD13R,1.200000X0.900000*%
%ADD14R,1.700000X1.700000*%
%ADD15O,1.700000X1.700000*%
%ADD16R,2.000000X1.600000*%
%ADD17R,1.600000X2.000000*%
%ADD18C,1.700000*%
G04 APERTURE END LIST*
D10*
D11*
X103571000Y-121099000D03*
X104521000Y-121099000D03*
X105471000Y-121099000D03*
X105471000Y-124519000D03*
X104521000Y-124519000D03*
X103571000Y-124519000D03*
X86235500Y-121099000D03*
X87185500Y-121099000D03*
X88135500Y-121099000D03*
X88135500Y-124519000D03*
X87185500Y-124519000D03*
X86235500Y-124519000D03*
D12*
X92964000Y-179789000D03*
X92964000Y-177589000D03*
D13*
X102954000Y-177419000D03*
X100754000Y-177419000D03*
D12*
X92964000Y-169969000D03*
X92964000Y-172169000D03*
X90424000Y-169969000D03*
X90424000Y-172169000D03*
X95504000Y-179789000D03*
X95504000Y-177589000D03*
X90424000Y-179789000D03*
X90424000Y-177589000D03*
X98044000Y-169969000D03*
X98044000Y-172169000D03*
X110998000Y-146261000D03*
X110998000Y-144061000D03*
D14*
X110363000Y-118999000D03*
D15*
X110363000Y-121539000D03*
D14*
X63627000Y-170053000D03*
D15*
X63627000Y-167513000D03*
X63627000Y-164973000D03*
X63627000Y-162433000D03*
X63627000Y-159893000D03*
X63627000Y-157353000D03*
X63627000Y-154813000D03*
X63627000Y-152273000D03*
X63627000Y-149733000D03*
X63627000Y-147193000D03*
X63627000Y-144653000D03*
X63627000Y-142113000D03*
X63627000Y-139573000D03*
X63627000Y-137033000D03*
X63627000Y-134493000D03*
X63627000Y-131953000D03*
D16*
X102584000Y-179959000D03*
X98584000Y-179959000D03*
D17*
X105029000Y-152178000D03*
X105029000Y-156178000D03*
X110998000Y-149257000D03*
X110998000Y-153257000D03*
X107950000Y-149257000D03*
X107950000Y-153257000D03*
D16*
X96805500Y-140716000D03*
X92805500Y-140716000D03*
D17*
X89662000Y-140620500D03*
X89662000Y-136620500D03*
D16*
X110966000Y-137858500D03*
X106966000Y-137858500D03*
X84804000Y-174879000D03*
X80804000Y-174879000D03*
X110902500Y-135001000D03*
X106902500Y-135001000D03*
X92805000Y-133858000D03*
X88805000Y-133858000D03*
X85756500Y-133858000D03*
X81756500Y-133858000D03*
X84804000Y-178689000D03*
X80804000Y-178689000D03*
X84105500Y-122682000D03*
X80105500Y-122682000D03*
X69373500Y-122682000D03*
X65373500Y-122682000D03*
X101441000Y-122682000D03*
X97441000Y-122682000D03*
D14*
X98044000Y-182499000D03*
D18*
X98044000Y-185039000D03*
X95504000Y-182499000D03*
X95504000Y-185039000D03*
X92964000Y-182499000D03*
X92964000Y-185039000D03*
X90424000Y-182499000D03*
X90424000Y-185039000D03*
X87884000Y-182499000D03*
X87884000Y-185039000D03*
X85344000Y-182499000D03*
X85344000Y-185039000D03*
D13*
X85872500Y-118999000D03*
X83672500Y-118999000D03*
D12*
X89725500Y-118661000D03*
X89725500Y-120861000D03*
D13*
X87355500Y-126619000D03*
X89555500Y-126619000D03*
D12*
X89725500Y-124925000D03*
X89725500Y-122725000D03*
D13*
X71140500Y-118999000D03*
X68940500Y-118999000D03*
D12*
X74993500Y-120861000D03*
X74993500Y-118661000D03*
D13*
X72750500Y-126619000D03*
X74950500Y-126619000D03*
D12*
X74993500Y-124925000D03*
X74993500Y-122725000D03*
D13*
X103271500Y-119062500D03*
X101071500Y-119062500D03*
D12*
X107061000Y-120924500D03*
X107061000Y-118724500D03*
D13*
X104564000Y-126619000D03*
X106764000Y-126619000D03*
D12*
X107061000Y-124925000D03*
X107061000Y-122725000D03*
D11*
X71503500Y-121099000D03*
X72453500Y-121099000D03*
X73403500Y-121099000D03*
X73403500Y-124519000D03*
X72453500Y-124519000D03*
X71503500Y-124519000D03*
M02*
